<svg width="199" height="195" viewBox="0 0 199 195" fill="none" xmlns="http://www.w3.org/2000/svg">
<g clip-path="url(#clip0_15_10)" filter="url(#filter0_d_15_10)">
<path d="M60.6381 75.7951L60.981 75.5575L60.5326 76.508C60.392 76.7897 60.0755 77.1242 59.5832 77.5114L58.8447 78.1715L58.8711 77.4322C58.9062 77.0801 59.4953 76.5344 60.6381 75.7951ZM45.0776 67.7944C44.8666 66.9846 44.4534 65.9901 43.838 64.8106L42.9413 63.1999C42.7303 62.8831 42.4402 62.7775 42.071 62.8831C41.7193 63.0063 41.5611 63.2615 41.5963 63.6488L41.86 67.2927C42.0182 69.8628 42.0534 71.6055 41.9655 72.5209C41.9127 72.961 41.7985 73.2954 41.6226 73.5243L40.8578 74.1052L39.7501 74.7653C39.2402 75.1174 38.8622 75.4958 38.616 75.9007C37.983 76.9041 37.5611 78.4532 37.3501 80.548C37.1391 82.4844 37.1831 83.9278 37.4819 84.8784C37.5874 85.2129 37.605 85.5033 37.5347 85.7498C37.482 85.9786 37.3237 86.2427 37.06 86.5419L36.4534 86.8852L35.9259 87.2813L35.7149 88.2054C35.7325 88.4343 35.8556 88.6807 36.0841 88.9448L36.6644 89.7369C36.8754 90.1242 36.9809 90.4763 36.9809 90.7931L36.8226 91.8757C36.7523 92.4566 36.7786 92.9143 36.9017 93.2488C37.06 93.7417 37.3852 93.9969 37.8776 94.0145C38.4402 93.9617 38.827 93.9617 39.038 94.0145C39.46 94.1378 39.7853 94.2962 40.0138 94.4898C40.3479 94.8419 40.5677 95.3084 40.6732 95.8893C40.7963 96.4526 40.7787 96.9103 40.6204 97.2624L40.1193 97.4208L39.5127 97.5792L38.6952 97.764C38.3787 97.9225 38.194 98.1865 38.1413 98.5562L38.5369 99.1107L39.2754 100.008L40.2512 101.038C40.6732 101.514 40.7699 101.848 40.5413 102.042C40.3831 102.165 40.0842 101.91 39.6446 101.276C39.0116 100.361 38.5105 99.7268 38.1413 99.3747C37.0512 98.3186 35.8995 97.588 34.6863 97.1831C33.227 96.6198 32.4973 96.3998 32.4973 96.523L32.8929 97.0511L33.3149 97.5528C32.1545 96.9895 30.5369 96.3206 28.4621 95.546L27.2226 95.3348C26.5896 95.2468 26.2643 95.2468 26.2467 95.3348C26.2116 95.4932 26.4489 95.7573 26.9588 96.1269L27.961 96.8135L34.7391 102.121C35.4424 102.684 36.1369 103.503 36.8226 104.577C37.4028 105.439 37.7896 106.17 37.9831 106.768C38.1061 107.173 38.3259 107.481 38.6424 107.692L39.5919 108.247L40.093 108.616L40.0666 108.775C39.9435 109.303 39.9611 109.998 40.1193 110.861L40.6732 111.442L41.2798 111.944C37.1479 118.721 34.4666 125.445 33.2358 132.117C31.372 142.116 33.0512 150.97 38.2732 158.68C44.9018 168.45 52.893 174.576 62.2469 177.058C66.2382 178.114 70.8096 178.625 75.9613 178.59L90.9416 177.507C99.4515 176.539 107.364 173.326 114.678 167.869C116.999 166.127 119.135 164.243 121.087 162.219L123.54 159.472L123.091 157.281L80.2602 145.742L79.5217 148.858L78.3085 147.749C78.2206 147.449 78.2206 147.159 78.3085 146.877C78.3965 146.631 78.5107 146.446 78.6514 146.323L72.6382 149.307C68.6294 151.278 64.4975 151.613 60.2425 150.31C55.1084 148.743 50.7304 144.923 47.1084 138.85C44.7172 134.837 43.7325 130.154 44.1545 124.803C44.471 120.736 45.5172 116.679 47.293 112.63C48.5941 112.683 49.3326 112.806 49.5084 113C50.0183 113.581 50.5018 113.933 50.959 114.056C51.926 114.355 53.148 114.003 54.6249 113L54.7304 112.92C55.2051 112.604 55.4073 111.935 55.337 110.914L55.4161 110.122L55.6535 109.541C55.7941 109.382 56.0139 109.241 56.3128 109.118L57.3941 108.669L58.4755 108.775L59.7678 109.329C60.77 109.928 61.3854 110.254 61.6139 110.306C62.3876 110.5 63.0118 109.963 63.4865 108.696L64.0667 106.451L64.1986 106.055L64.8052 104.761C64.9986 104.268 64.9458 103.784 64.6469 103.309C64.4711 103.01 64.2865 102.279 64.0931 101.117C63.8997 99.9557 63.8118 99.0579 63.8293 98.4242L63.8557 97.3416C63.8557 96.8311 63.7502 96.347 63.5392 95.8893C63.4162 95.6252 63.1788 95.2468 62.8271 94.7539L61.9568 93.3544L61.6931 92.3246L61.8249 91.4004C62.0008 90.7139 62.0711 90.1154 62.0359 89.6049L61.9568 88.3111C61.9216 87.8006 61.8249 87.3517 61.6667 86.9644C61.5964 86.7884 61.359 86.3571 60.9546 85.6706C60.6733 85.1777 60.5414 84.8256 60.559 84.6144C60.5942 84.2623 60.9019 83.2677 61.4821 81.6306C62.0623 80.0815 62.4052 78.9725 62.5107 78.3036C62.6162 77.617 62.6689 76.8689 62.6689 76.0592L62.6425 74.9765C62.6249 74.7829 62.5282 74.6157 62.3524 74.4749L64.6997 72.4153C64.8403 72.292 64.9195 72.1424 64.937 71.9664C64.9722 71.7727 64.9282 71.5967 64.8052 71.4383C64.7173 71.2975 64.5766 71.2006 64.3832 71.1478L63.8821 71.227C62.2469 72.0544 61.2008 72.5209 60.7436 72.6265L59.3458 72.6001L58.7128 72.4945C57.781 72.3537 56.77 72.8289 55.6798 73.9203L55.4689 74.158L55.8117 71.3063C55.8645 70.5493 55.5919 69.3611 54.9941 67.7416C54.537 66.5798 53.9743 65.3299 53.3062 63.9921C53.0249 63.4288 52.7963 62.3198 52.6205 60.6651L52.4095 57.2324C52.4095 56.8451 52.2249 56.6163 51.8557 56.5459C51.4864 56.4579 51.2139 56.5811 51.0381 56.9155L50.6952 57.8133C50.4666 58.5174 50.3523 59.1864 50.3523 59.8201C50.3523 60.2778 50.2293 61.1051 49.9831 62.3022L50.2205 60.1634C50.2381 59.9697 50.1941 59.7937 50.0886 59.6353C49.9655 59.4592 49.8073 59.3536 49.6139 59.3184C49.4205 59.3008 49.2359 59.3448 49.06 59.4504C48.9018 59.556 48.8051 59.7057 48.7699 59.8993L48.5326 60.9555C48.3216 61.7301 48.093 62.3814 47.8468 62.9095C47.6183 63.42 47.5128 64.0185 47.5304 64.705L47.7414 66.4741L47.926 67.6624C47.9611 68.2257 47.4776 69.1675 46.4754 70.4877L45.8424 71.3327L45.5523 71.8344L45.4732 70.7253C45.3853 69.4051 45.2534 68.4281 45.0776 67.7944Z" fill="#0D131A"/>
<path d="M46.3436 82.4756L45.8688 82.2115C45.7458 82.2643 45.7458 82.5372 45.8688 83.0301C46.0447 83.7518 46.1238 84.6144 46.1062 85.6178C46.0886 86.5507 45.9919 87.3429 45.8161 87.9942C45.6579 88.5399 45.4029 89.0416 45.0513 89.4993C44.7524 89.9218 44.5941 90.3266 44.5765 90.7139C44.559 91.6293 44.6293 92.4919 44.7875 93.3016C44.7875 93.4776 44.726 93.6009 44.6029 93.6713C44.4974 93.7417 44.3304 93.6801 44.1018 93.4864C43.8732 93.2048 43.671 92.8175 43.4952 92.3246C43.4073 92.0606 43.3985 91.7437 43.4688 91.374C43.504 90.9164 43.4337 90.5115 43.2578 90.1594L42.8359 89.288C42.6776 88.9712 42.5194 88.8392 42.3611 88.892L42.282 89.3409L42.4139 90.6875L42.0974 91.1628L41.9655 91.9549C42.0007 92.2366 42.2468 92.9055 42.704 93.9617L43.3106 95.7309C43.504 96.3294 43.5831 96.7783 43.548 97.0775C43.46 97.9049 43.293 98.3185 43.0469 98.3185L42.8359 97.9753L42.6249 97.2623L41.7809 95.6516C41.6051 95.3524 41.271 94.9563 40.7787 94.4634C41.1655 95.1676 41.3589 95.8981 41.3589 96.655C41.3589 96.9895 41.271 97.3768 41.0952 97.8168C40.9721 98.0985 40.6205 98.3009 40.0402 98.4242C39.4776 98.5122 39.1787 98.6794 39.1435 98.9259C39.1084 99.2075 39.3018 99.5244 39.7238 99.8764L40.726 100.748C40.9897 101.082 41.1304 101.426 41.1479 101.778C41.1831 102.182 41.0424 102.491 40.726 102.702C40.3743 102.948 39.8644 102.605 39.1963 101.672L37.693 99.6388C37.1303 99.1635 35.9171 98.477 34.0534 97.5792L35.7413 99.0315C35.9875 99.2427 36.2248 99.5508 36.4534 99.9557L36.7172 100.51L35.6622 99.7972C34.8182 99.2515 34.071 98.7938 33.4204 98.4242C32.3655 97.8609 30.6248 97.1303 28.1984 96.2325L35.1347 101.223C35.9611 101.874 36.7611 102.675 37.5347 103.626C38.2556 104.541 38.7128 105.289 38.9062 105.87C39.0644 106.31 39.4337 106.768 40.0139 107.243L41.2271 108.168C41.3853 108.344 41.4293 108.599 41.3589 108.933L41.3326 110.254C41.4029 110.553 41.5787 110.826 41.86 111.072L45.7634 106.847L47.4513 105.342L48.3744 104.682L46.4491 107.296L47.926 107.455L48.2689 107.904L49.3502 105.923L49.2447 106.821C49.0865 107.631 48.8139 108.599 48.4271 109.725L49.5612 109.831L50.2469 110.042L50.6953 110.016C51.2051 109.576 51.4777 109.268 51.5128 109.092C51.5304 108.986 51.4952 108.881 51.4073 108.775L51.2227 108.537C51.0117 108.132 50.9414 107.569 51.0117 106.847C51.0821 106.126 51.2667 105.58 51.5656 105.21C51.8469 104.841 52.3656 104.427 53.1216 103.969C53.9304 103.494 54.5722 103.256 55.0469 103.256C55.2228 103.256 55.5041 103.353 55.8909 103.547L56.814 103.969C57.148 104.057 57.4293 103.908 57.6579 103.52C58.0447 102.781 58.3436 101.945 58.5546 101.012C58.7656 100.026 58.7568 99.4188 58.5283 99.1899C58.2645 98.9259 57.4909 98.5034 56.2074 97.9225L54.8623 97.1567C54.4755 96.8927 54.2381 96.6198 54.1502 96.3382C53.9392 95.7573 54.1678 95.0531 54.8359 94.2258C55.715 93.152 55.9085 92.1222 55.4161 91.1364C55.2052 90.6787 54.6953 90.3002 53.8865 90.001C53.3942 89.8073 52.8843 89.4289 52.3568 88.8656L51.5392 87.3605L50.8535 85.2745C50.6777 84.6408 50.5106 84.3239 50.3524 84.3239C50.2469 84.3239 50.1766 84.5704 50.1414 85.0633C50.1062 85.7146 50.1414 86.3571 50.2469 86.9908L50.4579 88.2583C50.493 88.5047 50.4755 88.6631 50.4051 88.7335C50.2821 88.8568 50.1326 88.9008 49.9568 88.8656C49.4645 88.7423 49.0601 88.4695 48.7436 88.047C48.3744 87.5189 48.1018 86.7092 47.926 85.6178C47.7853 84.7728 47.4777 83.9895 47.0029 83.2677L46.3436 82.4756Z" fill="#EFE908"/>
<path d="M44.392 67.9792C44.181 67.2047 43.7678 66.2453 43.1525 65.1011L42.3085 63.596L42.5722 67.2399C42.7481 69.8452 42.7832 71.6319 42.6777 72.6001C42.5898 73.4627 42.203 74.1228 41.5173 74.5805C40.5854 75.1966 39.9612 75.7511 39.6447 76.244C39.0469 77.1946 38.5898 78.6469 38.2733 80.6008C37.9568 82.502 37.9217 83.8574 38.1678 84.6672C38.3612 85.3009 38.2469 85.917 37.8249 86.5155L36.8491 87.8358C36.6909 88.1702 36.6645 88.4167 36.77 88.5751C36.981 88.8216 37.1656 89.1032 37.3239 89.4201C37.4821 89.7545 37.5612 90.177 37.5612 90.6875C37.5612 91.3036 37.6491 91.8493 37.8249 92.3246C38.0008 92.8703 38.3964 93.24 39.0118 93.4336C39.803 93.6801 40.3217 93.9265 40.5678 94.173L40.9898 94.7275C41.5524 95.326 42.036 96.0917 42.4404 97.0247L42.7568 98.0281L42.9942 98.5034C43.0997 98.5386 43.2052 98.4418 43.3107 98.2129L43.5744 97.2624C43.6272 96.8927 43.5832 96.4526 43.4426 95.9421L42.9415 94.437L42.3876 93.064L42.0711 92.0078L42.0975 91.374L42.3085 91.0836C42.4492 90.8723 42.5195 90.6611 42.5195 90.4499L42.3876 89.4729C42.3349 89.1912 42.3437 89.0416 42.414 89.024C42.5722 88.9888 42.792 89.2969 43.0733 89.9482C43.3371 90.5115 43.4426 90.9692 43.3898 91.3212V92.2454C43.7766 93.3368 44.1722 93.8473 44.5766 93.7769C44.8755 93.7241 44.9459 93.3896 44.7876 92.7735L44.6558 90.9252C44.6558 90.4323 44.7788 90.0098 45.025 89.6577C45.4118 89.1472 45.658 88.7071 45.7635 88.3375C46.1503 86.982 46.3085 85.6882 46.2382 84.4559C46.2206 84.0511 46.1151 83.5318 45.9217 82.898C45.6755 82.0707 45.9217 82.0971 46.6602 82.9773C47.2052 83.699 47.5745 84.4912 47.7679 85.3537C48.0843 86.8324 48.4448 87.8182 48.8492 88.3111C48.9723 88.4519 49.1657 88.5927 49.4294 88.7335C49.7283 88.892 49.9745 88.9624 50.1679 88.9448L50.4844 88.7335L50.5635 88.4431L50.1943 85.6706C50.1415 84.8784 50.1942 84.4823 50.3525 84.4823C50.4404 84.4823 50.5371 84.6496 50.6426 84.984L51.0118 86.1723C51.4338 87.5101 51.7855 88.3463 52.0668 88.6807L53.069 89.6049L54.0712 90.2122C54.3877 90.3354 54.6251 90.4587 54.7833 90.5819C54.9943 90.7579 55.1701 91.022 55.3108 91.374C55.5745 91.9726 55.6009 92.5623 55.3899 93.1432L54.6514 94.3578L54.0448 95.3876C53.9217 95.7045 53.913 96.0389 54.0184 96.391C54.0888 96.5846 54.3349 96.8487 54.7569 97.1831L56.524 98.1865C57.3328 98.4858 57.9569 98.8466 58.3965 99.2691C58.836 99.7268 58.5635 101.126 57.5789 103.468C57.4031 103.82 57.1569 103.952 56.8404 103.864L55.9965 103.468C55.5569 103.256 55.1789 103.151 54.8624 103.151C54.5108 103.151 53.913 103.415 53.069 103.943C52.2778 104.418 51.7591 104.797 51.5129 105.078C51.2668 105.342 51.091 105.844 50.9855 106.583C50.88 107.27 50.88 107.789 50.9855 108.141L51.3547 108.801C51.4602 108.977 51.4426 109.127 51.302 109.25L50.7745 109.752C50.5987 109.91 50.414 109.972 50.2206 109.937L49.5085 109.699L48.48 109.593L47.8997 111.151L48.1635 111.099C48.5679 111.011 49.0778 111.292 49.6931 111.944L51.0646 113.185C51.6096 113.325 52.6646 112.876 54.2294 111.838C54.5108 111.644 54.6426 111.389 54.625 111.072C54.5899 110.562 54.625 110.166 54.7305 109.884C54.8888 109.426 55.2053 109.074 55.68 108.828C56.2954 108.599 56.7877 108.379 57.1569 108.168L59.1613 108.273L61.0602 109.039C61.4998 109.145 61.9657 108.845 62.4581 108.141C62.8273 107.596 63.135 106.962 63.3811 106.24L63.7767 104.841C63.8471 104.4 63.7504 103.969 63.4866 103.547C63.2405 103.142 63.0998 102.165 63.0646 100.616L63.1174 97.3416C63.1174 96.7607 62.9152 96.1797 62.5108 95.5988L61.2976 93.6713C60.9811 93.02 60.8932 92.3422 61.0339 91.6381C61.2273 90.6347 61.3152 89.9746 61.2976 89.6577C61.2624 89.1824 60.9899 88.3023 60.48 87.0172C60.0053 85.8378 59.7943 85.0104 59.8471 84.5352C59.8822 84.0599 60.1899 83.0301 60.7701 81.4458C61.3679 79.7735 61.7108 78.6909 61.7987 78.198C61.9042 77.5466 61.9482 76.8249 61.9306 76.0328L61.9042 75.0294L61.7723 75.5311C61.6317 75.9535 61.4295 76.3936 61.1657 76.8513C60.9547 77.2386 60.5943 77.6435 60.0844 78.0659C59.5218 78.5236 59.1174 78.9373 58.8712 79.307C58.6251 79.6766 58.458 80.1255 58.3701 80.6536C58.124 79.1749 58.0448 78.0747 58.1327 77.353C58.1855 76.8777 58.5371 76.3848 59.1877 75.8743L60.8229 74.7917C61.1745 74.5453 61.8427 73.982 62.8273 73.1018L64.2251 71.8608L62.9328 72.4945C62.0009 72.9522 61.3328 73.2338 60.9284 73.3395L59.7416 73.4187L58.6339 73.2074C57.913 73.1018 57.0954 73.5067 56.1811 74.4221C56.0053 74.5981 55.8734 74.959 55.7855 75.5047C55.68 76.0856 55.4514 76.6225 55.0998 77.1154C54.4492 77.9955 54.08 78.6821 53.9921 79.175C54.6426 74.9502 55.0119 72.3097 55.0998 71.2535C55.1525 70.5493 54.8624 69.4051 54.2294 67.8208C53.8075 66.7118 53.28 65.5412 52.647 64.3089C52.2954 63.6048 52.0316 62.223 51.8558 60.1634L51.6976 57.2588L51.3811 58.0246C51.1701 58.6583 51.0646 59.2568 51.0646 59.8201C51.0646 60.2954 50.9591 61.0875 50.7481 62.1965L50.3525 64.6786C50.2646 65.6468 50.1855 66.0517 50.1151 65.8932C49.869 65.5764 49.6228 65.0483 49.3767 64.3089C49.1305 63.5872 49.1745 62.1701 49.5085 60.0577L49.2448 61.1403L48.5327 63.2263C48.2866 63.772 48.2162 64.485 48.3217 65.3651L48.6382 67.6096C48.6909 68.2081 48.436 68.9386 47.8734 69.8012L46.4492 71.7552C45.9569 72.4769 45.6755 73.2866 45.6052 74.1844C45.2711 73.6211 45.025 72.9698 44.8667 72.2304L44.7085 70.3821C44.6733 69.4667 44.5678 68.6658 44.392 67.9792Z" fill="#E50020"/>
<path d="M114.019 166.575C116.339 164.885 118.476 163.09 120.427 161.189L122.669 158.812L102.15 153.294C100.216 156.938 97.7548 160.203 94.7657 163.09C90.0712 167.596 84.691 170.448 78.625 171.645C67.1085 173.898 56.1721 171.381 45.816 164.093C43.6534 162.562 41.6314 160.661 39.7501 158.39C46.238 167.702 54.0007 173.493 63.0381 175.764C66.8535 176.732 71.2316 177.181 76.1722 177.111L90.3877 176.028C98.7042 175.078 106.581 171.927 114.019 166.575Z" fill="#DDD583"/>
<path d="M99.9878 152.766L90.6779 150.231C88.2866 154.579 84.6295 158.073 79.7064 160.714C74.6602 163.407 69.0953 164.753 63.0118 164.753C57.7194 164.753 52.7788 163.715 48.1897 161.638C43.7414 159.613 40.1545 156.858 37.4292 153.373C39.6974 157.492 42.6776 160.802 46.3699 163.301C56.5502 170.184 67.2492 172.525 78.4668 170.325C84.2515 169.181 89.2273 166.47 93.3944 162.192C95.7152 159.798 97.9131 156.656 99.9878 152.766Z" fill="#D18200"/>
<path d="M48.0052 107.243L48.3745 105.157L47.2931 106.108L46.3437 107.455L43.1525 111.759C40.392 115.702 38.1063 120.314 36.2953 125.595C34.5546 130.665 33.6843 135.057 33.6843 138.771C33.6843 143.946 34.9326 148.814 37.4293 153.373C40.1546 156.858 43.7415 159.613 48.1898 161.638C52.7789 163.715 57.7196 164.753 63.0119 164.753C69.0954 164.753 74.6603 163.407 79.7065 160.713C84.6296 158.073 88.2868 154.579 90.678 150.231L79.8384 147.3L79.2581 147.854C78.2735 148.523 76.3043 149.579 73.3504 151.023C69.0779 153.118 64.5943 153.461 59.8998 152.053C54.2382 150.363 49.4734 146.288 45.6052 139.827C43.1085 135.655 42.159 130.709 42.7568 124.988C43.1964 120.868 44.3832 116.582 46.3173 112.128C47.2843 109.91 48.1107 108.22 48.7964 107.059L49.0602 105.818L48.0052 107.243Z" fill="#F29600"/>
<path d="M95.0295 160.37C96.7174 158.346 98.3702 155.811 99.9878 152.766L79.8646 147.326L79.7855 147.458C79.6273 147.634 79.2492 147.898 78.6514 148.25C78.2998 149.799 78.1239 151.366 78.1239 152.95C78.1239 155.925 78.713 158.76 79.891 161.453C81.0338 164.058 82.6426 166.347 84.7174 168.318C88.6383 166.54 92.0757 163.891 95.0295 160.37Z" fill="#D18200"/>
<path d="M117.526 163.856C118.581 162.06 119.372 160.133 119.9 158.073L102.15 153.294C100.726 156.022 98.9328 158.583 96.7701 160.978C93.5525 164.604 89.8954 167.376 85.7986 169.295C87.6624 170.827 89.702 172.006 91.9173 172.833C94.2382 173.696 96.6382 174.136 99.1174 174.154C105.693 172.059 111.83 168.626 117.526 163.856Z" fill="#DDD583"/>
<path d="M142.08 28.0021L149.755 36.5045C150.072 36.9446 150.23 38.1856 150.23 40.2276C150.23 42.5161 150.001 44.9013 149.544 47.3834C149.263 49.0029 148.63 51.0889 147.645 53.6413C146.643 56.2818 145.781 58.0422 145.061 58.9223L141.157 63.332L137.544 67.4247C136.999 68.2169 136.612 69.5283 136.384 71.3591C135.891 74.5805 135.487 76.6577 135.17 77.5907C134.731 78.8581 134.186 80.0815 133.535 81.261C133.061 82.1059 132.348 83.2413 131.399 84.6672C130.115 86.5507 128.63 88.3551 126.942 90.0802L125.781 89.6049L124.384 89.5257C123.909 89.6841 123.575 90.1242 123.381 90.846L123.038 92.6415L121.377 93.7505C121.043 93.9793 120.832 94.3138 120.744 94.7539C120.691 95.1588 120.788 95.5284 121.034 95.8629L124.885 100.853L127.311 107.006C127.504 107.516 127.874 107.816 128.419 107.904C128.665 107.956 129.025 107.868 129.5 107.64L130.45 107.006C132.313 104.753 134.23 102.711 136.199 100.88C139.153 98.1513 141.509 96.6198 143.267 96.2854C144.551 96.0389 145.869 96.1446 147.223 96.6022C147.628 96.7607 148.683 97.2624 150.388 98.1073C151.443 98.6354 152.208 98.9611 152.683 99.0843C153.474 99.2955 154.177 99.2427 154.793 98.9259C155.302 98.6618 155.593 98.2129 155.663 97.5792L155.61 96.3646L155.478 95.7837C155.32 94.7627 155.566 93.6449 156.217 92.4303C156.639 91.6909 157.456 90.9428 158.669 90.1858C160.463 89.0416 162.476 88.4695 164.709 88.4695C169.861 88.4695 175.294 90.6171 181.008 94.9123C184.261 97.3416 187.074 99.9909 189.448 102.86C189.536 103.6 189.536 104.506 189.448 105.58L189.289 107.296C189.289 108.176 189.5 108.951 189.922 109.62C190.362 110.306 190.889 110.65 191.505 110.65C192.085 110.65 192.604 110.43 193.061 109.99C193.641 109.444 193.975 108.652 194.063 107.613L194.089 107.455C194.459 103.265 194.696 99.9557 194.802 97.5264C194.872 95.8893 194.872 94.9035 194.802 94.5691C194.485 92.4038 193.782 88.98 192.692 84.2975C191.672 79.8967 190.749 76.2528 189.922 73.3659C189.201 70.831 188.041 67.3895 186.441 63.0415C184.947 58.9752 183.971 56.5371 183.514 55.7273C182.916 54.6535 180.525 51.6786 176.34 46.8025C172.208 41.9968 169.623 39.1714 168.586 38.3265C167.724 37.6223 166.353 36.8478 164.472 36.0028L162.784 35.2371C162.063 34.9026 161.623 34.6738 161.465 34.5506L154.924 29.4808L148.173 24.3318C146.854 23.3812 145.597 22.8091 144.401 22.6155C143.153 22.4219 142.221 22.6771 141.606 23.3812C141.148 23.9093 140.937 24.5959 140.973 25.4408C141.025 26.3914 141.395 27.2452 142.08 28.0021Z" fill="#0D131A"/>
<path d="M168.77 49.7862C164.92 46.512 162.669 44.7341 162.019 44.4524C161.14 44.3292 159.909 44.47 158.326 44.8749C156.726 45.2974 155.777 45.7462 155.478 46.2215C155.285 46.5912 154.168 49.9886 152.129 56.4139L150.678 60.7443C150.309 61.7124 147.733 64.2825 142.951 68.4545C142.335 69.0002 141.544 70.9278 140.577 74.2372L139.944 76.3496L138.704 81.1289L137.016 88.0734C136.647 89.4993 136.313 90.309 136.014 90.5027C134.836 91.3124 133.5 92.5711 132.005 94.2786C131.724 94.613 131.126 95.8981 130.212 98.1337L127.733 104.392L128.656 106.478C130.098 104.876 131.768 103.221 133.667 101.514C137.465 98.1161 140.507 96.2061 142.792 95.7837C144.973 95.3788 147.364 95.7661 149.966 96.9455L152.392 98.0809C153.148 98.3801 153.711 98.433 154.08 98.2393C154.274 98.1337 154.406 97.7728 154.476 97.1567L154.529 96.2854C154.406 96.0037 154.344 95.6164 154.344 95.1235C154.344 94.1554 154.634 93.1344 155.214 92.0606C155.707 91.1276 156.691 90.2562 158.168 89.4465C160.102 88.3727 162.309 87.8358 164.788 87.8358C169.781 87.8358 174.933 89.6401 180.243 93.2488C183.531 95.4844 186.59 98.1777 189.421 101.329C189.228 94.217 189.017 90.2298 188.788 89.3673C188.032 86.2867 186.415 81.2257 183.935 74.1844C180.63 64.837 177.984 58.9047 175.997 56.3874C175.153 55.3312 172.744 53.1308 168.77 49.7862Z" fill="#008086"/>
<g filter="url(#filter1_d_15_10)">
<path d="M143.452 27.3156C147.883 32.0333 150.529 34.929 151.39 36.0028C151.953 36.7246 152.138 38.4321 151.944 41.1254C151.821 42.9209 151.54 45.0069 151.1 47.3834C150.819 48.9853 150.107 51.1505 148.964 53.879C147.803 56.6251 146.801 58.5175 145.957 59.5561L138.731 68.0056C138.239 68.657 137.808 70.1004 137.439 72.3361C136.981 75.0822 136.63 76.8073 136.384 77.5114C135.926 78.8493 135.46 80.0375 134.986 81.0761L133.219 84.5088C132.568 85.7234 131.478 87.2549 129.948 89.1032C128.524 90.8107 127.671 91.7173 127.39 91.8229L126.441 91.5325C125.984 91.3036 125.623 91.2332 125.359 91.3212C124.867 91.4797 124.542 92.2102 124.384 93.5128L122.194 94.9651L126.151 100.141L126.704 101.514C128.832 96.7078 130.203 93.9617 130.819 93.2752C132.7 91.11 134.247 89.6225 135.46 88.8128C135.795 88.4255 136.647 85.5385 138.019 80.1519L139.285 75.2934L139.918 73.2074L140.893 70.118C141.28 69.1851 141.729 68.4897 142.239 68.0321L146.3 64.0713C148.269 62.0469 149.342 60.7971 149.518 60.3218L150.968 56.0442C153.289 49.0733 154.555 45.4294 154.766 45.1125C155.223 44.3556 156.41 43.7395 158.327 43.2642C160.067 42.8417 161.465 42.7097 162.52 42.8681C163.171 42.9737 165.623 44.8925 169.878 48.6244C173.993 52.2155 176.428 54.4951 177.184 55.4633C179.346 58.2094 182.089 64.5642 185.412 74.5277C187.083 79.5094 188.542 84.2711 189.79 88.8128C190.072 89.9746 190.309 94.5779 190.503 102.623L190.74 107.296C190.74 107.701 190.819 108.053 190.977 108.352C191.136 108.634 191.311 108.775 191.505 108.775C191.751 108.775 191.927 108.705 192.032 108.564C192.226 108.352 192.349 107.948 192.401 107.349L192.744 101.962L193.034 96.8135C193.017 94.9475 192.507 91.6117 191.505 86.806C190.626 82.5108 189.773 78.9901 188.946 76.244C187.716 72.1248 186.239 67.7152 184.516 63.0151C183.074 59.1424 182.16 56.854 181.773 56.1498C181.228 55.164 178.986 52.3387 175.048 47.6738C171.091 42.9737 168.63 40.2364 167.663 39.4619C166.854 38.8106 165.254 37.948 162.863 36.8742C161.667 36.3285 160.551 35.8532 159.513 35.4483L147.83 25.8105C146.863 25.0008 145.896 24.4462 144.929 24.147C143.926 23.8477 143.267 23.9181 142.951 24.3582C142.318 25.2736 142.485 26.2594 143.452 27.3156Z" fill="#F29600"/>
</g>
<path d="M156.058 52.5851C156.463 52.3915 157.061 52.2067 157.852 52.0306L159.803 51.7402C161.034 52.5851 163.267 54.3895 166.502 57.1532C169.913 60.0577 171.953 61.9325 172.621 62.7775C174.467 65.1187 177.025 70.875 180.296 80.0463C182.793 86.982 184.437 91.9901 185.228 95.0707L185.386 97.2887C186.722 98.5034 188.067 99.85 189.421 101.329C189.228 94.217 189.017 90.2298 188.788 89.3673C188.032 86.2867 186.415 81.2257 183.935 74.1844C180.63 64.837 177.984 58.9047 175.997 56.3874C175.153 55.3312 172.744 53.1308 168.77 49.7862C164.92 46.512 162.669 44.7341 162.019 44.4524C161.14 44.3292 159.909 44.47 158.326 44.8749C156.726 45.2974 155.777 45.7462 155.478 46.2215C155.285 46.5912 154.168 49.9886 152.129 56.4139L150.678 60.7443C150.309 61.7124 147.733 64.2825 142.951 68.4545C142.335 69.0002 141.544 70.9278 140.577 74.2372L139.944 76.3496L138.704 81.1289L137.016 88.0734C136.647 89.4993 136.313 90.309 136.014 90.5027C134.836 91.3124 133.5 92.5711 132.005 94.2786C131.724 94.613 131.126 95.8981 130.212 98.1337L127.733 104.392L128.656 106.478L130.951 104.101C131.724 102.165 132.225 101.029 132.454 100.695C133.825 99.1107 134.977 98.0193 135.909 97.4208C136.524 96.9983 136.999 96.3382 137.333 95.4404C137.579 94.8067 137.975 93.3456 138.52 91.0572L139.601 86.5947L140.814 81.9739L141.474 79.7558C141.896 78.3124 142.309 76.5432 142.713 74.4484L143.188 71.7551L150.546 65.4179C151.795 64.2737 152.603 63.1559 152.973 62.0645L156.058 52.5851Z" fill="#00666C"/>
<path d="M7.62676 74.3164C7.02896 75.8479 6.2817 79.5534 5.38499 85.4329C4.52345 91.066 4.09269 94.7891 4.09269 96.6022V97.1831L4.17181 108.722C4.40038 110.887 5.31468 111.952 6.91469 111.917C7.61799 111.9 8.11907 111.574 8.41798 110.94C8.6993 110.342 8.83997 109.356 8.83997 107.983C8.83997 107.12 8.92788 106.328 9.10371 105.606C12.6378 102.121 16.3477 98.6442 20.2334 95.1764C25.5082 90.4939 29.0423 87.7654 30.8357 86.9908C32.9983 86.0578 35.6797 85.653 38.8797 85.7762C41.4995 85.8994 43.3632 86.2339 44.4709 86.7796C44.9808 87.026 46.2292 88.3287 48.216 90.6875L50.5105 93.196C51.038 93.7065 51.5303 93.9881 51.9874 94.0409L52.9896 93.9089L54.5457 93.2488C57.2182 92.087 59.1699 91.3388 60.4007 91.0044C63.2666 90.2474 65.693 90.2738 67.6798 91.0836C70.493 92.2278 73.6315 93.9881 77.0953 96.3646C79.7326 98.1777 81.4997 99.5332 82.3964 100.431C82.6953 100.765 83.6008 102.411 85.1129 105.369L89.6492 114.32C89.8778 114.742 90.3876 114.971 91.1789 115.006C91.7415 115.006 92.1811 114.769 92.4975 114.294L104.445 94.173C104.726 93.7153 104.744 93.2488 104.498 92.7735C104.234 92.2806 103.838 92.0166 103.311 91.9814L98.2207 91.8493C97.4822 89.6841 96.8492 88.3991 96.3217 87.9942C96.0228 87.783 95.4514 87.6069 94.6074 87.4661L92.1547 87.5189L87.9349 84.72L81.5261 80.0727C78.0271 77.397 75.0381 74.5013 72.559 71.3855C72.1194 70.3469 71.4073 68.0144 70.4227 64.3882C69.3853 60.5506 68.4095 56.5899 67.4952 52.5059C66.6513 48.7212 65.948 44.9277 65.3853 41.1254C64.8754 37.6575 64.6469 35.4395 64.6996 34.4713C64.7348 33.9432 65.2535 32.8958 66.2557 31.3291C67.3458 29.604 68.8139 27.5796 70.6601 25.256C71.3985 24.3406 71.8821 23.3724 72.1106 22.3514C72.392 21.1192 72.2161 20.0454 71.5832 19.13C71.1084 18.4435 70.5194 18.0386 69.8161 17.9154C69.0425 17.7922 68.1897 17.9506 67.2579 18.3907C66.4666 18.7604 65.737 19.2533 65.0688 19.8694L60.7699 24.015L56.6556 28.0021C56.5149 28.1253 55.8996 28.2926 54.8094 28.5038L52.6468 28.9527C52.1369 29.1111 50.0885 30.1145 46.5017 31.9628L40.6467 34.8674C38.9236 35.4131 37.1654 35.7916 35.372 36.0028L33.2621 36.2933C32.4533 36.4341 31.9434 36.6101 31.7324 36.8214C30.5016 37.9832 28.0401 41.7591 24.3477 48.1491L16.6466 61.7477C15.0642 64.4762 13.1125 67.3015 10.7916 70.2237L7.62676 74.3164Z" fill="#0D131A"/>
<path d="M13.851 69.1939L11.3719 72.5473L9.34109 75.6367C8.76087 77.0977 7.98724 80.5568 7.02021 86.0138C6.05317 91.418 5.56965 94.9475 5.56965 96.6022V102.385L5.64877 108.247C5.7191 108.863 5.8334 109.312 5.99165 109.593C6.20263 109.963 6.51032 110.139 6.91473 110.122C7.17846 110.104 7.37186 109.752 7.49493 109.065C7.58285 108.59 7.6268 108.062 7.6268 107.481L7.67955 105.131L9.47297 85.6706V85.5649C11.2136 79.1221 14.8444 71.051 20.3653 61.3516C25.3764 52.5675 29.3764 46.688 32.3654 43.7131C33.1918 42.8681 36.8929 41.3454 43.4688 39.145C49.5523 37.0854 52.7875 36.0556 53.1743 36.0556C54.2644 35.9676 55.3721 36.2052 56.4974 36.7686C57.6227 37.3495 58.4842 38.124 59.082 39.0922C59.6798 40.0428 61.2798 45.4646 63.882 55.3577C64.6557 58.3678 65.4908 62.8303 66.3876 68.745C66.8974 72.0896 67.2315 73.9203 67.3898 74.2372C67.6711 74.7653 69.8689 76.508 73.9832 79.4654L76.9898 81.6834C77.5876 82.1763 78.2206 82.9596 78.8887 84.0335C79.2404 84.5792 79.7415 85.4681 80.392 86.7004L80.9722 87.783C81.0602 87.8886 81.5261 88.0382 82.3701 88.2318C84.0228 88.6367 85.3591 89.0152 86.3789 89.3673C87.7151 89.8249 89.4646 91.9902 91.6272 95.8629C93.069 98.4506 94.5811 101.584 96.1635 105.263L103.205 93.4336L97.113 92.9583L96.5064 91.242C96.0492 90.0626 95.6624 89.3585 95.3459 89.1296C94.9064 88.8304 94.1679 88.6895 93.1305 88.7071L91.7327 88.8128L86.7481 85.4329L80.6558 81.2609C79.9349 80.7152 78.2206 79.1309 75.5129 76.508C72.8227 73.8851 71.4074 72.4241 71.2667 72.1248C70.37 70.1884 68.7084 63.9041 66.2821 53.2717C63.7853 42.2872 62.6337 35.818 62.8271 33.864C62.8974 33.1775 63.882 31.5052 65.781 28.8471L69.3678 24.147C69.8777 23.5133 70.2293 22.7827 70.4227 21.9554C70.6513 21.0752 70.6161 20.3711 70.3172 19.843C70.0183 19.3325 69.4205 19.2533 68.5238 19.6053C67.7326 19.9046 66.9238 20.4327 66.0974 21.1896L61.8249 25.5464L57.8952 29.5336L55.6534 29.9033L52.5677 30.5634C51.8468 30.8098 48.1017 32.5614 41.3325 35.818L36.7434 37.1118C34.405 37.7103 33.139 38.0976 32.9456 38.2736C31.2753 39.8755 27.6884 45.3766 22.1851 54.7767L13.851 69.1939Z" fill="#F29600"/>
<path d="M10.3698 85.8818L8.73463 104.101C12.3918 100.651 15.8995 97.4648 19.2578 94.5426C24.6908 89.825 28.3831 87.0436 30.3347 86.1987C32.7084 85.1777 35.5743 84.7816 38.9326 85.0104C41.6051 85.1865 43.6095 85.609 44.9458 86.2779C45.526 86.5595 46.7568 87.739 48.6381 89.8162C50.3788 91.7173 51.5832 92.7295 52.2513 92.8527C52.6557 92.9407 53.447 92.7471 54.625 92.2718L58.2909 90.7931C61.9833 89.4905 65.1921 89.3937 67.9174 90.5027C70.9416 91.7525 74.2383 93.4512 77.8075 95.5988C80.8141 97.412 82.6955 98.6794 83.4515 99.4012C83.9087 99.8588 85.3416 102.35 87.7504 106.874L91.2318 113.528L94.845 107.719C92.2779 101.329 90.8537 97.8169 90.5724 97.1831C88.8845 93.416 87.5219 91.3564 86.4845 91.0044C85.746 90.7403 84.2867 90.3795 82.1064 89.9218L80.7878 89.5785L79.9965 88.9976L79.3108 87.7566L78.0976 84.9576C77.5174 83.7078 76.9899 82.8805 76.5152 82.4756L75.1701 81.6306L73.2712 80.4424L68.5503 76.9569C67.2668 75.9535 66.5196 75.2318 66.3086 74.7917L65.8338 72.917L65.2009 68.9298L64.3042 62.6454C63.8998 59.9697 63.469 57.7605 63.0118 56.0178L60.1898 45.2446C59.3459 42.1112 58.8272 40.3861 58.6338 40.0692C58.1591 39.3299 57.3327 38.7401 56.1547 38.3001C55.0821 37.8776 54.0799 37.7104 53.1481 37.7984C52.2689 37.9392 49.0689 38.9602 43.548 40.8613C37.5172 42.9209 34.1677 44.2852 33.4996 44.9541C30.4402 48.0347 26.4138 53.7734 21.4204 62.1702C15.7413 71.7111 12.0577 79.615 10.3698 85.8818Z" fill="#008086"/>
<path d="M13.0335 100.114L13.7456 92.219C15.3984 86.1459 18.994 78.462 24.5325 69.1675C29.3853 61.0523 33.2534 55.5249 36.137 52.5851C36.9985 51.9866 40.0227 50.7984 45.2095 49.0205C49.8513 47.4362 52.9371 46.4504 54.4667 46.0631C54.9942 46.0455 55.5744 46.1599 56.2074 46.4064C56.8404 46.6352 57.2712 46.8817 57.4997 47.1457C57.7635 47.8499 58.8536 51.8634 60.7701 59.1864L61.614 62.487C62.1767 64.617 62.7481 67.812 63.3283 72.072L63.7503 75.135L64.5151 79.6502C64.691 80.6008 64.8932 81.2873 65.1217 81.7098C65.4382 82.3611 66.1415 83.1445 67.2316 84.0599L72.8229 88.2847L75.0646 89.6841L75.935 90.2122C82.2295 95.8805 85.7636 98.8467 86.5372 99.1107C87.5219 99.9205 89.4823 104.084 92.4186 111.6V111.627L94.845 107.719C92.2779 101.329 90.8537 97.8169 90.5724 97.1831C88.8845 93.416 87.5219 91.3564 86.4845 91.0044C85.746 90.7403 84.2867 90.3795 82.1064 89.9218L80.7878 89.5785L79.9965 88.9976L79.3108 87.7566L78.0976 84.9576C77.5174 83.7078 76.9899 82.8805 76.5152 82.4756L75.1701 81.6306L73.2712 80.4424L68.5503 76.9569C67.2668 75.9535 66.5196 75.2318 66.3086 74.7917L65.8338 72.917L65.2009 68.9298L64.3042 62.6454C63.8998 59.9697 63.469 57.7605 63.0118 56.0178L60.1898 45.2446C59.3459 42.1112 58.8272 40.3861 58.6338 40.0692C58.1591 39.3299 57.3327 38.7401 56.1547 38.3001C55.0821 37.8776 54.0799 37.7104 53.1481 37.7984C52.2689 37.9392 49.0689 38.9602 43.548 40.8613C37.5172 42.9209 34.1677 44.2852 33.4996 44.9541C30.4402 48.0347 26.4138 53.7734 21.4204 62.1702C15.7413 71.7111 12.0577 79.615 10.3698 85.8818L8.73463 104.101L13.0335 100.114Z" fill="#00666C"/>
<path d="M173.808 105.527L174.335 105.421L175.258 104.761C175.874 104.057 176.138 103.186 176.05 102.147C175.997 101.443 175.355 100.29 174.124 98.6882C173.105 97.3504 172.34 96.4702 171.83 96.0477L171.619 95.8629L172.674 92.9847L172.832 92.6679C173.078 92.1574 173.219 91.7085 173.254 91.3212C173.289 90.8283 173.193 90.2738 172.964 89.6577C172.542 88.6191 171.821 87.8886 170.801 87.4661C170.098 87.1845 169.096 87.0612 167.795 87.0964L165.764 87.3341C165.166 87.5805 164.19 88.6631 162.836 90.5819L162.388 90.7667L161.808 90.9252L159.856 90.001C158.959 89.3321 158.3 88.9184 157.878 88.76C157.316 88.5487 156.683 88.5399 155.979 88.7335C155.012 88.98 154.186 89.9042 153.5 91.5061C152.902 92.9319 152.691 94.0586 152.867 94.8859C152.937 95.2556 153.175 95.8629 153.579 96.7079L154.766 99.0315L155.056 99.5596L154.977 100.167C151.443 103.353 149.14 104.805 148.067 104.524L146.01 104.022C144.621 103.67 143.302 103.23 142.054 102.702C139.997 101.839 138.238 100.977 136.779 100.114C136.357 99.0051 136.006 98.2393 135.724 97.8169C135.003 96.7959 133.948 95.9861 132.559 95.3876C131.381 94.8771 129.465 94.5955 126.81 94.5426C125.245 94.5074 123.856 94.5338 122.643 94.6219L120.691 94.8067L127.443 109.329L128.445 109.145L133.008 107.666L136.014 109.171L140.234 111.204L142.028 112.155L143.557 113.079C145.228 113.959 146.546 114.443 147.513 114.531C149.729 114.69 152.41 113.827 155.557 111.944C157.509 110.764 159.513 109.285 161.57 107.507C162.221 107.877 162.81 108.071 163.338 108.088C164.076 108.124 164.885 107.886 165.764 107.375C166.274 107.094 166.836 106.548 167.452 105.738L168.639 103.969L169.272 105.263L169.72 105.738L173.808 105.527Z" fill="#0D131A"/>
<path d="M173.755 104.154C173.966 104.154 174.168 104.075 174.362 103.916C174.766 103.6 174.942 103.071 174.889 102.332C174.854 101.804 174.661 101.258 174.309 100.695L172.964 98.9787L171.276 97.368L170.221 96.4174C170.028 96.1181 170.432 94.7979 171.434 92.4566C171.891 91.4004 172.12 90.6963 172.12 90.3442C172.138 89.5169 171.566 88.8656 170.406 88.3903L167.979 88.2582L166.212 88.5487L165.105 89.8161L163.944 91.374C163.593 91.8669 162.968 92.1486 162.072 92.219L159.566 91.0044C158.968 90.5467 158.45 90.2738 158.01 90.1858L156.533 90.3178C155.988 90.4587 155.461 91.1452 154.951 92.3774C154.476 93.5392 154.291 94.3754 154.397 94.8859C154.467 95.2732 154.757 95.9773 155.267 96.9983L156.269 98.9787C156.516 99.4716 156.48 100.123 156.164 100.933L152.814 103.6C150.335 105.325 148.472 106.02 147.223 105.686L144.77 104.841L141.078 103.415L135.645 101.117C135.557 100.642 135.32 100.096 134.933 99.4804C134.142 98.2481 132.946 97.2887 131.346 96.6022C130.274 96.1445 128.515 95.9069 126.071 95.8893L122.748 95.9949L128.234 107.824L132.111 105.791C135.733 107.675 138.617 109.057 140.762 109.937C141.535 110.271 142.863 110.923 144.744 111.891C145.975 112.542 146.88 112.885 147.461 112.92C149.465 113.079 151.988 112.234 155.03 110.386C156.894 109.241 158.793 107.833 160.727 106.161C160.797 106.108 160.709 105.862 160.463 105.421L160.067 104.761L161.465 105.738C161.711 106.02 162.063 106.231 162.52 106.372C163.417 106.671 164.401 106.522 165.474 105.923C166.388 105.395 167.153 104.638 167.768 103.652L168.401 102.332L170.274 104.339L173.755 104.154Z" fill="#F29600"/>
<path d="M156.586 95.3612L158.722 96.655C159.918 97.2359 160.744 97.5352 161.201 97.5528C161.483 97.5528 161.72 97.4736 161.913 97.3152C162.247 96.9631 162.291 96.0653 162.045 94.6219C161.817 93.284 161.544 92.351 161.228 91.8229C160.806 91.1716 160.234 90.6963 159.513 90.3971L157.483 90.3178C156.867 90.5467 156.419 90.9692 156.138 91.5853C155.891 92.1134 155.821 92.6855 155.927 93.3016L155.979 93.6713C156.085 94.4634 156.287 95.0267 156.586 95.3612Z" fill="#0D131A"/>
<path d="M157.562 90.5291L159.434 90.6347C160.102 90.9164 160.63 91.3564 161.017 91.955C161.316 92.4302 161.579 93.3192 161.808 94.6219C162.036 96.0125 162.01 96.8487 161.729 97.1303C161.606 97.2536 161.439 97.3152 161.228 97.3152C160.806 97.2976 160.006 97.0071 158.828 96.4438C157.685 95.8805 156.999 95.4668 156.77 95.2028C156.489 94.8859 156.305 94.3666 156.217 93.6449L156.164 93.2752C156.076 92.6943 156.137 92.1574 156.348 91.6645C156.595 91.1188 156.999 90.7403 157.562 90.5291ZM161.439 91.6909C160.981 90.9868 160.366 90.4851 159.592 90.1858L157.403 90.0802C156.823 90.309 156.375 90.6875 156.058 91.2156C155.777 91.6909 155.636 92.219 155.636 92.7999L155.742 93.7241C155.847 94.5514 156.067 95.15 156.401 95.5196C156.665 95.8365 157.403 96.2854 158.617 96.8663C159.865 97.4648 160.727 97.7729 161.201 97.7905C161.553 97.8081 161.843 97.7024 162.072 97.4736C162.476 97.0687 162.546 96.1005 162.283 94.569C162.054 93.2136 161.773 92.2542 161.439 91.6909Z" fill="#0D131A"/>
<path d="M157.931 93.9881C158.248 94.3754 159.426 95.3084 161.465 96.7871C161.623 96.6286 161.632 95.9509 161.492 94.7539C161.333 93.5392 161.122 92.6855 160.859 92.1926C160.56 91.6821 160.138 91.2948 159.593 91.0308C159.03 90.7491 158.511 90.6963 158.037 90.8723C157.527 91.0484 157.175 91.4004 156.982 91.9285C157.034 92.4214 157.149 92.8351 157.324 93.1696L157.931 93.9881Z" fill="white"/>
<path d="M157.298 94.7539C157.491 95.0003 158.186 95.4316 159.382 96.0477C160.63 96.6815 161.324 96.9279 161.465 96.7871C159.426 95.3084 158.247 94.3754 157.931 93.9881L157.324 93.1696C157.149 92.8351 157.034 92.4215 156.982 91.9286C156.858 92.263 156.815 92.6239 156.85 93.0112L156.982 94.0145L157.298 94.7539Z" fill="#DBDCDC"/>
<path d="M174.151 102.042C173.799 101.742 173.298 101.531 172.648 101.408C171.962 101.285 171.364 101.426 170.854 101.83C170.502 102.112 170.256 102.464 170.116 102.887L168.744 105.052C168.551 105.263 168.199 105.457 167.689 105.633L166.872 105.87L167.241 106.636C167.628 107.428 168.753 107.772 170.617 107.666L172.753 107.375C173.491 107.147 174.081 106.707 174.52 106.055C174.819 105.615 175.004 105.113 175.074 104.55C175.144 104.004 175.083 103.529 174.889 103.124L174.81 102.992C174.634 102.587 174.415 102.27 174.151 102.042Z" fill="#0D131A"/>
<path d="M174.072 102.147C174.3 102.341 174.511 102.631 174.705 103.019L174.784 103.177C174.96 103.564 175.021 104.022 174.968 104.55C174.898 105.096 174.722 105.58 174.441 106.002C174.001 106.619 173.43 107.032 172.727 107.243L170.617 107.534C168.788 107.64 167.707 107.323 167.373 106.583L167.03 105.95L167.716 105.738C168.278 105.545 168.656 105.342 168.85 105.131C169.096 104.849 169.544 104.145 170.195 103.019L170.221 102.992L170.3 102.86C170.441 102.455 170.678 102.121 171.012 101.857C171.47 101.505 172.015 101.39 172.648 101.514C173.263 101.637 173.738 101.848 174.072 102.147ZM174.626 106.134C175.03 105.536 175.232 104.885 175.232 104.18C175.232 103.758 175.153 103.388 174.995 103.071L174.916 102.939C174.705 102.499 174.476 102.174 174.23 101.962C173.861 101.628 173.342 101.399 172.674 101.276C172.006 101.153 171.426 101.276 170.933 101.646C170.564 101.91 170.283 102.271 170.089 102.728L168.665 104.973C168.489 105.184 168.146 105.36 167.637 105.501L166.845 105.765L166.766 105.818L166.74 105.87L167.135 106.689C167.54 107.516 168.7 107.877 170.617 107.772L172.779 107.481C173.553 107.235 174.168 106.786 174.626 106.134Z" fill="#0D131A"/>
<path d="M174.204 103.441L173.782 102.781C173.518 102.535 173.122 102.367 172.595 102.279C172.05 102.174 171.619 102.315 171.302 102.702C171.127 102.878 171.012 103.071 170.96 103.283L170.379 104.26L169.483 105.58C169.201 105.897 168.744 106.152 168.111 106.346C171.276 106.803 173.307 105.835 174.204 103.441Z" fill="white"/>
<path d="M173.966 105.686C174.195 105.351 174.335 104.973 174.388 104.55C174.423 104.163 174.379 103.837 174.256 103.573L174.204 103.441C173.307 105.835 171.276 106.803 168.111 106.346C168.164 106.469 168.322 106.583 168.586 106.689L170.722 106.927L172.568 106.715C173.149 106.539 173.615 106.196 173.966 105.686Z" fill="#DBDCDC"/>
<path d="M168.085 90.265C167.54 90.8812 167.311 91.5941 167.399 92.4038C167.452 93.1256 167.672 93.6361 168.059 93.9353L169.193 94.9915L170.327 96.259C170.538 96.5934 170.661 97.1479 170.696 97.9225L170.881 98.609L171.645 98.5826C172.102 98.4418 172.542 98.1689 172.964 97.7641C173.808 96.9367 174.23 95.8189 174.23 94.4106C174.23 93.0728 173.659 91.6293 172.516 90.0802C172.375 89.8866 172.085 89.7017 171.645 89.5257C171.241 89.3849 170.863 89.3057 170.511 89.2881C169.527 89.2352 168.718 89.5609 168.085 90.265Z" fill="#0D131A"/>
<path d="M172.727 89.9482C172.551 89.7017 172.217 89.4905 171.724 89.3144L170.538 89.0504C169.447 88.9976 168.568 89.3496 167.9 90.1066C167.338 90.7579 167.083 91.5325 167.135 92.4302C167.223 93.2048 167.478 93.7769 167.9 94.1465L169.008 95.1499C169.606 95.7485 169.975 96.1621 170.116 96.391C170.309 96.6726 170.423 97.2007 170.458 97.9753L170.643 98.6618L170.722 98.7938L171.645 98.8202H171.698C172.138 98.7322 172.612 98.433 173.122 97.9225C174.019 97.0599 174.467 95.8893 174.467 94.4106C174.467 93.0551 173.887 91.5677 172.727 89.9482ZM169.351 94.8331L168.217 93.7505C167.883 93.504 167.689 93.0463 167.636 92.3774L167.61 92.1662C167.61 91.5325 167.83 90.9515 168.269 90.4234C168.815 89.8073 169.562 89.5081 170.511 89.5257L171.54 89.7633L172.331 90.2386C173.439 91.7525 173.993 93.1432 173.993 94.4106C173.993 95.7132 173.615 96.7518 172.858 97.5264C172.454 97.9489 172.032 98.2217 171.593 98.3449L171.065 98.3713L170.933 97.8961C170.933 97.1391 170.801 96.5494 170.538 96.1269C170.379 95.8805 169.984 95.4492 169.351 94.8331Z" fill="#0D131A"/>
<path d="M169.14 93.0111L170.749 94.4634C171.452 95.3612 171.619 96.4262 171.25 97.6584V97.7904C171.584 97.6848 171.927 97.4648 172.278 97.1303C172.964 96.4438 173.307 95.502 173.307 94.305C173.307 93.6008 173.122 92.8263 172.753 91.9813C172.472 91.3476 172.155 90.8019 171.804 90.3442C171.575 90.0626 171.083 89.9218 170.327 89.9218C169.483 89.9394 168.859 90.1858 168.454 90.6611L168.19 91.0044C168.366 91.8845 168.683 92.5535 169.14 93.0111Z" fill="white"/>
<path d="M168.322 93.2752C169.588 94.2258 170.406 94.9739 170.775 95.5196C171.021 95.9245 171.179 96.6374 171.25 97.6584C171.619 96.4262 171.452 95.3612 170.749 94.4634L169.14 93.0111C168.683 92.5535 168.366 91.8845 168.19 91.0044C167.944 91.4444 167.865 91.9197 167.953 92.4302C168.023 92.8527 168.146 93.1344 168.322 93.2752Z" fill="#DBDCDC"/>
<path d="M168.401 99.2955C168.401 98.0985 167.953 97.0159 167.056 96.0477C166.142 95.0795 165.105 94.5778 163.944 94.5426C165.263 96.2678 165.79 97.72 165.527 98.8995C165.351 99.6916 164.639 100.361 163.39 100.906C162.353 101.364 161.333 101.61 160.331 101.646L161.491 102.966C161.949 103.353 162.485 103.547 163.1 103.547C164.384 103.547 165.571 103.142 166.661 102.332C167.821 101.452 168.401 100.44 168.401 99.2955Z" fill="#D18200"/>
<path d="M164.524 95.3612C163.68 94.0233 163.188 93.4248 163.048 93.5657L164.129 95.4404C164.85 96.8311 165.122 97.9401 164.946 98.7674C164.788 99.4011 164.155 99.9909 163.048 100.537C162.01 101.047 161.052 101.302 160.173 101.302C159.557 101.302 158.898 101.153 158.195 100.853L157.324 100.457C158.116 101.249 159.083 101.646 160.226 101.646C161.21 101.646 162.247 101.408 163.338 100.933C164.621 100.387 165.351 99.7092 165.527 98.8994C165.738 97.9665 165.404 96.7871 164.524 95.3612Z" fill="#0D131A"/>
<path d="M135.144 123.086L133.693 122.4L116.603 161.532L118.739 161.796C120.023 161.955 121.122 162.175 122.036 162.456C122.441 162.597 123.197 163.081 124.304 163.908L126.019 165.044C125.491 165.783 125.078 166.822 124.779 168.16C124.498 169.41 124.427 170.263 124.568 170.721C124.744 171.337 125.069 171.874 125.544 172.332C125.983 172.754 126.467 173.045 126.994 173.203C128.981 173.626 130.564 174.083 131.742 174.576C132.498 174.875 133.632 175.527 135.144 176.53L137.333 178.088L138.203 178.933C138.643 179.232 139.179 179.435 139.812 179.54C140.34 179.628 141.219 179.479 142.45 179.091L144.401 179.54L146.485 180.068C147.417 180.385 148.225 180.702 148.911 181.019L149.94 181.521C150.467 181.767 150.854 181.864 151.1 181.811C151.469 181.723 151.61 181.345 151.522 180.676C151.434 180.042 151.197 179.294 150.81 178.431L150.256 177.322L155.056 177.56C155.654 177.665 156.225 177.824 156.77 178.035L157.931 178.537L158.907 178.616C159.083 178.51 159.144 178.326 159.091 178.062C159.021 177.498 158.845 176.891 158.564 176.24C158.019 174.919 157.157 173.714 155.979 172.622L158.036 172.569C159.021 172.587 159.812 172.728 160.41 172.992C161.307 173.414 161.57 173.027 161.201 171.83C160.902 170.862 159.997 169.788 158.485 168.609C157.641 167.975 156.727 167.42 155.742 166.945C154.916 166.54 154.221 166.276 153.658 166.153L153.395 166.1L152.788 166.047L149.518 163.988C148.603 163.354 147.715 162.588 146.854 161.69L145.641 160.212L145.377 158.997L146.933 157.835C147.759 157.184 148.41 156.542 148.885 155.908C150.713 153.443 151.768 151.278 152.05 149.412C152.559 145.909 151.373 141.693 148.489 136.764C146.555 133.437 143.504 130.022 139.337 126.519C135.997 123.984 134.599 122.84 135.144 123.086Z" fill="#0D131A"/>
<path d="M138.784 127.39C137.746 126.528 136.727 125.797 135.724 125.199L134.511 124.539L118.951 160.212C120.304 160.37 121.491 160.608 122.511 160.925C123.056 161.101 123.751 161.55 124.595 162.271C125.544 163.081 126.274 163.609 126.784 163.856C127.083 164.014 127.548 164.305 128.181 164.727L129.025 165.308L128.287 165.414C127.777 165.484 127.434 165.572 127.258 165.678C127.047 165.818 126.828 166.276 126.599 167.051L126.124 169.242C126.476 169.806 127.267 170.342 128.498 170.853C129.377 171.205 130.309 171.496 131.294 171.724C132.208 171.936 133.192 172.244 134.247 172.649C135.496 173.106 136.454 173.564 137.122 174.022L139.1 175.263C139.733 175.615 140.296 175.817 140.788 175.87L142.107 177.85C143.654 177.34 145.421 176.574 147.408 175.553C149.535 174.444 151.162 173.414 152.287 172.464C153.571 171.39 154.309 170.378 154.502 169.427L154.397 168.318L148.436 164.595C147.399 163.873 146.45 163.028 145.588 162.06C144.92 161.303 144.498 160.713 144.322 160.291L144.217 159.552L143.188 159.869L140.392 160.08L141.843 159.763L142.977 159.34C143.258 159.252 143.619 159.076 144.058 158.812L144.665 158.416C145.263 158.029 146.124 157.078 147.25 155.565C148.656 153.716 149.509 151.648 149.808 149.359C150.318 145.715 149.412 141.772 147.091 137.53C144.858 133.464 142.089 130.084 138.784 127.39Z" fill="#F29600"/>
<path d="M128.498 170.853C127.267 170.343 126.476 169.806 126.124 169.242C126.036 169.982 126.019 170.431 126.071 170.589C126.282 171.135 126.687 171.575 127.285 171.909L128.762 172.464L131.926 173.441C132.296 173.511 133.219 173.995 134.696 174.893L137.412 176.583L138.493 177.507C138.951 177.894 139.496 178.141 140.129 178.246C140.48 178.299 141.14 178.167 142.107 177.85L140.788 175.87C140.296 175.817 139.733 175.615 139.1 175.263L137.122 174.022C136.454 173.564 135.496 173.106 134.247 172.649C133.192 172.244 132.208 171.936 131.293 171.724C130.309 171.496 129.377 171.205 128.498 170.853Z" fill="#D18200"/>
<path d="M142.713 160.898C143.065 160.669 143.214 160.52 143.162 160.449L142.634 160.608L141.526 160.978L140.076 161.11L139.258 161.215L140.049 161.426L141.5 161.374C141.904 161.303 142.309 161.145 142.713 160.898Z" fill="#0D131A"/>
<path d="M134.59 157.651C136.612 154.676 137.623 151.357 137.623 147.696C137.623 144.827 136.982 142.133 135.698 139.616C134.45 137.187 132.744 135.18 130.581 133.596L118.951 160.212C120.305 160.37 121.491 160.608 122.511 160.925C123.056 161.101 123.751 161.55 124.595 162.271C125.544 163.081 126.274 163.609 126.784 163.856L126.81 163.882C130.01 162.65 132.603 160.573 134.59 157.651Z" fill="#D18200"/>
<path d="M152.894 167.13C152.648 167.059 152.437 167.165 152.261 167.447C152.067 167.746 151.935 168.195 151.865 168.793C151.777 169.656 151.865 170.677 152.129 171.856H157.799C158.397 171.892 159.109 172.05 159.935 172.332L160.99 172.754C161.061 172.543 160.999 172.235 160.806 171.83C160.437 171.038 159.628 170.175 158.379 169.242C157.535 168.609 156.428 168.089 155.056 167.684L152.894 167.13Z" fill="white"/>
<path d="M155.425 170.747C153.474 170.607 152.419 170.334 152.261 169.929H152.234L152.419 171.487L157.825 171.513C158.388 171.531 159.021 171.654 159.724 171.883C158.617 171.267 157.184 170.888 155.425 170.747Z" fill="#DBDCDC"/>
<path d="M153.316 166.866L152.999 166.787L152.287 166.892C151.865 167.174 151.601 167.799 151.496 168.767V169.955L152.234 169.929V168.846C152.305 168.142 152.454 167.693 152.683 167.5C152.999 167.288 153.781 167.42 155.03 167.896C156.261 168.353 157.307 168.899 158.168 169.533C159.487 170.519 160.287 171.399 160.568 172.173L159.724 171.883L159.197 172.49L160.858 173.097H161.149C161.272 173.045 161.342 172.965 161.36 172.86C161.412 172.508 161.342 172.129 161.149 171.724C160.762 170.862 159.909 169.938 158.59 168.952C157.43 168.089 155.672 167.394 153.316 166.866Z" fill="#0D131A"/>
<path d="M157.799 172.226L159.197 172.49L159.724 171.883C159.021 171.654 158.388 171.531 157.825 171.513L152.419 171.487L152.234 169.929L151.496 169.955L151.759 171.936C151.812 172.129 151.935 172.226 152.129 172.226H157.799Z" fill="#0D131A"/>
<path d="M153.184 175.342C155.153 175.87 156.709 176.609 157.852 177.56L157.404 177.718L158.617 178.246C158.652 177.894 158.564 177.445 158.353 176.9C157.966 175.791 157.201 174.726 156.058 173.705C155.267 173.018 154.151 172.226 152.709 171.328L150.441 170.008C150.177 169.85 149.729 170.07 149.096 170.668C148.393 171.302 147.927 172.015 147.698 172.807L147.566 173.309L148.647 174.18C149.122 174.462 149.553 174.638 149.94 174.708L153.184 175.342Z" fill="white"/>
<path d="M154.792 176.847C155.302 176.935 156.173 177.225 157.403 177.718L157.852 177.56C156.709 176.609 155.153 175.87 153.184 175.342L149.94 174.708C149.553 174.638 149.122 174.462 148.647 174.18L147.566 173.309C147.337 174.347 147.294 175.333 147.434 176.266L154.792 176.847Z" fill="#DBDCDC"/>
<path d="M158.142 177.533L157.852 177.507C156.41 176.909 155.408 176.565 154.845 176.477L147.777 175.923C147.672 174.831 147.76 173.828 148.041 172.913C148.234 172.244 148.621 171.619 149.201 171.038C149.694 170.563 150.054 170.325 150.283 170.325L150.415 170.404C152.946 171.83 154.749 173.018 155.821 173.969C156.999 175.007 157.755 176.099 158.089 177.243L158.142 177.533ZM157.008 177.956C157.922 178.326 158.406 178.537 158.459 178.59L158.801 178.563L158.986 178.273C159.004 177.868 158.907 177.366 158.696 176.768C158.291 175.606 157.491 174.497 156.296 173.441C155.171 172.42 153.333 171.196 150.784 169.77L150.626 169.691C150.45 169.586 150.195 169.586 149.861 169.691C149.439 169.867 148.973 170.246 148.463 170.827C147.883 171.46 147.469 172.129 147.223 172.833C146.889 173.784 146.757 174.638 146.828 175.395L147.065 176.319C147.1 176.495 147.215 176.6 147.408 176.636L154.713 177.19C155.206 177.261 155.971 177.516 157.008 177.956Z" fill="#0D131A"/>
<path d="M145.298 173.493C145.087 173.317 144.515 173.458 143.584 173.916C142.599 174.391 141.913 174.911 141.526 175.474L141.421 175.659L141.869 175.421C141.869 176.055 142.186 176.521 142.819 176.821L145.957 178.141C147.874 179.003 149.166 179.76 149.834 180.412L149.597 180.623L150.546 181.045C150.687 180.816 150.731 180.491 150.678 180.068C150.608 179.223 150.133 178.352 149.254 177.454C147.197 175.289 145.878 173.969 145.298 173.493Z" fill="white"/>
<path d="M140.894 177.639L146.063 179.303C146.924 179.584 148.102 180.024 149.597 180.623L149.834 180.412C149.166 179.76 147.874 179.003 145.957 178.141L142.819 176.821C142.186 176.521 141.869 176.055 141.869 175.421L141.421 175.659C140.964 176.416 140.788 177.076 140.894 177.639Z" fill="#DBDCDC"/>
<path d="M141.843 175.685C142.16 175.21 142.74 174.752 143.584 174.312C144.322 173.925 144.832 173.749 145.113 173.784L149.017 177.718C149.826 178.546 150.265 179.338 150.335 180.095C150.371 180.394 150.221 180.482 149.887 180.359L146.195 178.959L143.188 178.035L141.368 177.349C141.193 176.926 141.351 176.372 141.843 175.685ZM145.535 173.203C145.395 173.097 145.166 173.053 144.85 173.071C144.322 173.141 143.689 173.388 142.951 173.81C142.16 174.268 141.588 174.752 141.236 175.263C140.762 175.967 140.498 176.618 140.445 177.217C140.393 177.621 140.445 177.921 140.604 178.114C140.656 178.202 140.85 178.273 141.184 178.326L142.977 178.748L145.957 179.646C146.96 179.98 147.997 180.368 149.07 180.808L150.388 181.362C150.582 181.45 150.74 181.406 150.863 181.23C151.021 180.931 151.083 180.544 151.048 180.068C150.995 179.135 150.485 178.176 149.518 177.19C147.302 174.902 145.975 173.573 145.535 173.203Z" fill="#0D131A"/>
<path d="M105.21 51.8986C104.841 51.9866 104.542 52.1803 104.313 52.4795C104.085 52.7788 103.979 53.122 103.997 53.5093L104.313 62.0381C104.471 68.0408 104.454 71.9664 104.26 73.8147C104.014 76.0327 103.311 78.9549 102.15 82.5812C100.902 86.4539 99.557 89.6929 98.1153 92.2982C97.3768 93.6185 95.7856 96.1709 93.3416 99.9556L87.0383 109.99C84.7174 113.88 83.0998 116.978 82.1855 119.284C79.9877 124.864 78.4316 129.459 77.5173 133.067C75.847 139.581 75.3459 145.328 76.014 150.31C76.7525 155.732 79.0031 159.974 82.7657 163.037C86.4581 166.065 91.3548 167.72 97.4559 168.001C104.77 168.336 111.416 167.236 117.394 164.701C125.254 161.391 131.496 155.776 136.12 147.854C140.375 140.549 141.526 132.346 139.575 123.245C138.151 116.608 135.021 109.409 130.186 101.646C125.896 94.7275 123.293 85.2041 122.379 73.0754C122.098 69.097 122.546 63.9657 123.724 57.6813L125.597 49.3373C125.632 49.1085 125.491 48.8708 125.175 48.6244L124.357 48.0435C123.935 47.6386 123.434 47.5066 122.854 47.6474L105.21 51.8986Z" fill="#0D131A"/>
<path d="M132.955 149.887C126.766 155.063 120.199 158.311 113.254 159.631C106.291 160.951 100.252 160.062 95.1351 156.964C94.1153 159.886 92.8494 161.981 91.3373 163.248C90.634 163.864 89.7197 164.428 88.5944 164.938C91.179 166.012 94.1329 166.628 97.456 166.787C103.944 167.068 109.86 166.206 115.206 164.199C122.485 161.453 128.401 156.682 132.955 149.887Z" fill="#DDD583"/>
<path d="M137.149 120.076C135.566 115.57 133.553 111.97 131.109 109.277C127.716 105.545 123.724 103.846 119.135 104.18C113.632 104.603 108.744 108.845 104.471 116.908C100.656 124.107 98.5022 131.703 98.0099 139.695C97.5527 147.089 96.5945 152.845 95.1351 156.964C100.252 160.062 106.291 160.951 113.254 159.631C120.199 158.311 126.766 155.063 132.955 149.887L134.432 147.537C139.091 139.563 139.997 130.409 137.149 120.076Z" fill="#FFF697"/>
<path d="M96.7966 106.187C96.7966 104.128 96.1549 102.244 94.8713 100.537C90.1944 107.789 87.012 113.061 85.324 116.353H85.4295C88.5768 116.353 91.2581 115.359 93.4735 113.369C95.6889 111.398 96.7966 109.004 96.7966 106.187Z" fill="#D18200"/>
<path d="M105.605 53.4829L105.632 54.724L105.737 64.9163C105.737 68.4193 105.676 71.0862 105.553 72.917L105.474 73.8147C105.21 76.3496 104.533 79.4566 103.443 83.1357C102.247 87.1845 100.937 90.4939 99.5131 93.064L91.6009 105.659C87.5218 112.102 84.8844 116.837 83.6888 119.865C81.4734 125.498 79.8998 130.154 78.9679 133.833C77.4207 139.977 76.9635 145.399 77.5965 150.099C78.0536 153.496 79.1437 156.418 80.8668 158.865C82.502 161.206 84.6734 163.046 87.3811 164.384C88.7702 163.856 89.8867 163.231 90.7306 162.509C92.4185 161.066 93.7196 158.575 94.6339 155.036C95.4779 151.674 96.0933 146.86 96.4801 140.593C96.7087 136.755 97.3592 132.689 98.4317 128.394C99.5746 123.817 100.99 119.883 102.678 116.591C104.524 112.982 106.669 109.972 109.113 107.56C112.243 104.48 115.496 102.816 118.871 102.57C124.762 102.13 129.878 105.263 134.221 111.97C132.832 108.854 131.162 105.721 129.21 102.57C124.744 95.4228 122.063 85.8378 121.166 73.8147C121.008 71.4559 121.166 68.2609 121.641 64.2297C122.151 59.9873 122.827 56.5019 123.671 53.7734L123.223 49.3373V49.2317L105.605 53.4829Z" fill="#F29600"/>
<path d="M105.605 53.4829L105.632 54.724L105.737 64.9163C105.737 68.4193 105.676 71.0862 105.553 72.917L105.473 73.8147L104.946 77.1946C108.146 78.0572 111.267 77.4234 114.309 75.2934C116.841 73.5155 119.188 70.787 121.35 67.1079C121.79 61.8093 122.564 57.3645 123.671 53.7734L123.223 49.3373V49.2317L105.605 53.4829Z" fill="#D18200"/>
<path d="M76.3833 127.628C73.6581 130.744 71.3987 134.106 69.6053 137.715C67.2141 142.485 66.0185 147.546 66.0185 152.898C66.0185 155.661 66.6602 158.645 67.9437 161.849C68.5767 163.468 69.2185 164.833 69.869 165.942C70.0097 166.787 70.08 167.64 70.08 168.503C67.7415 170.298 66.2031 171.672 65.4646 172.622L64.2514 174.101L63.3547 175.157C62.5459 175.632 62.0184 176.143 61.7723 176.688C61.5437 177.234 61.447 177.886 61.4822 178.642L59.8206 181.679C59.2052 183.052 58.9591 184.364 59.0822 185.613C59.1525 186.282 59.3107 186.828 59.5569 187.25C59.8734 187.955 60.2074 188.324 60.5591 188.359L61.1393 187.937L61.4822 187.488C62.3613 186.573 62.9767 186.027 63.3283 185.851L65.0163 185.217L67.047 184.504L68.9987 184.61V185.825C69.0339 186.775 69.1657 187.567 69.3943 188.201C69.658 188.958 69.9921 189.609 70.3965 190.155C70.8009 190.718 71.1262 190.965 71.3723 190.894C71.4954 190.877 71.7679 190.534 72.1899 189.865C72.524 189.336 72.8932 188.879 73.2976 188.492L75.4603 187.066L77.5965 185.877L78.7306 185.481L80.3658 185.508C80.6471 186.634 81.2185 187.937 82.0801 189.416C82.5372 190.296 82.8713 190.727 83.0823 190.71C83.2054 190.692 83.4251 190.472 83.7416 190.049L84.1636 189.442C84.7438 188.492 85.2098 187.831 85.5614 187.462L87.1438 186.062L88.99 184.452L90.2032 184.029L91.0472 183.395C91.3461 183.131 91.5571 182.814 91.6801 182.445C91.768 182.181 91.8296 181.811 91.8648 181.336C92.0054 178.343 90.968 175.034 88.7526 171.407L88.9109 169.348C91.3724 168.133 93.7109 166.162 95.9263 163.433C97.7901 161.145 98.9681 158.205 99.4604 154.614L99.6714 149.887C99.5659 147.018 98.5285 144.166 96.5593 141.332C95.3988 139.642 94.0977 138.19 92.656 136.975L81.4999 123.166L81.9218 120.552L80.6559 123.113L76.3833 127.628Z" fill="#0D131A"/>
<path d="M73.0866 81.6834L72.9811 81.1025C72.858 79.9407 72.4008 79.0165 71.6096 78.33L71.4514 78.198C70.9591 77.7051 70.3261 77.3354 69.5525 77.089C68.4799 76.7369 67.5305 76.8073 66.7041 77.3002C65.6667 77.8987 64.8492 78.9109 64.2513 80.3368C63.6008 81.9035 63.6008 83.1797 64.2513 84.1655L64.9898 85.565C65.2887 86.1811 65.4557 86.5948 65.4909 86.806C65.4382 87.0172 65.2096 87.3781 64.8052 87.8886L63.8557 88.9976L61.4557 88.5487C60.4711 88.4783 59.759 88.7776 59.3194 89.4465C59.0909 89.7986 58.8975 90.9164 58.7392 92.7999C58.581 94.7011 58.6074 95.8629 58.8184 96.2854C58.959 96.567 59.1964 96.8311 59.5305 97.0775L60.77 97.8961L61.8513 98.3186C62.3261 98.477 62.6074 98.6178 62.6953 98.741C63.2755 99.3748 64.1283 100.633 65.2536 102.517C65.5349 102.992 66.0272 103.362 66.7305 103.626L68.3657 103.996C69.7019 109.382 70.8975 113.22 71.9525 115.508C72.7789 117.321 73.7459 118.589 74.8536 119.311C75.8382 119.944 77.0514 120.279 78.4932 120.314C79.7767 120.349 80.7877 120.164 81.5262 119.759C81.7547 119.636 82.8185 118.571 84.7174 116.564L88.0669 113.105L89.8867 111.785L91.7856 110.544C92.5064 110.051 93.368 109.576 94.3702 109.118L95.6625 108.59L96.6647 108.511L97.7988 108.722L98.4054 108.907L97.2449 108.088C98.2999 107.948 98.8362 107.789 98.8537 107.613C98.8713 107.507 98.7394 107.437 98.4581 107.402H98.0098L105.869 95.2556C106.467 95.5372 106.81 95.5372 106.898 95.2556C106.95 95.0796 106.942 94.9299 106.871 94.8067L106.529 94.437C106.335 94.2786 105.553 93.8209 104.181 93.064C102.933 92.395 101.5 91.8934 99.8823 91.5589C98.1241 91.2068 96.779 91.198 95.8471 91.5325C94.1592 92.1486 92.9724 93.02 92.2867 94.1466C91.6361 95.2556 91.302 96.9103 91.2845 99.1107L89.9394 99.8501C89.3592 100.185 88.9108 100.519 88.5943 100.853L88.146 101.355L85.8515 103.943C84.7614 105.157 83.9438 105.958 83.3987 106.346C82.6602 106.874 81.7811 107.155 80.7613 107.191L78.7042 107.032L78.2558 104.048C78.0976 102.411 78.08 101.311 78.2031 100.748L79.7327 99.454C80.524 99.1723 81.0514 98.9171 81.3152 98.6882C81.8427 98.1601 82.08 97.3064 82.0273 96.127L82.0009 94.8595L82.4492 94.4634C83.68 93.4424 84.5064 92.6151 84.9284 91.9814C85.5789 91.0308 85.7635 89.9306 85.4822 88.6808C85.2185 87.5365 84.7614 86.8236 84.1108 86.542C83.6009 86.3307 83.3547 86.2427 83.3723 86.2779L80.7877 84.9841C80.3481 84.8256 79.9262 84.8608 79.5218 85.0897L78.7042 85.829C78.2119 86.3219 77.9217 86.5772 77.8338 86.5948L76.014 86.8324L74.3525 84.1391C73.614 82.8541 73.1921 82.0355 73.0866 81.6834Z" fill="#0D131A"/>
<path d="M71.6359 81.9739L71.4249 80.4952C71.3194 79.8967 71.1524 79.5006 70.9238 79.307L69.5524 78.2772C68.726 77.9603 67.7502 78.1099 66.6249 78.7261L65.6755 80.4952C65.1304 81.7978 65.0601 82.7572 65.4645 83.3733C65.7282 83.7606 66.0095 84.4031 66.3084 85.3009C66.6249 86.2163 66.7568 86.8148 66.704 87.0964C66.5985 87.7478 66.1326 88.4519 65.3062 89.2088L64.093 90.133L62.6425 89.7105C61.6051 89.5345 60.9018 89.7193 60.5326 90.265C60.1458 90.8283 59.9348 91.8229 59.8996 93.2488C59.8644 94.4986 59.9348 95.2908 60.1106 95.6252L61.6139 96.7078C62.6161 97.3064 63.2579 97.7552 63.5392 98.0545L65.2271 100.061C65.9656 100.977 66.3963 101.558 66.5194 101.804C66.8007 102.279 67.3985 102.64 68.3128 102.887L69.6052 103.098L70.0008 105.58C70.4052 107.64 70.9766 109.629 71.7151 111.547C72.5766 113.765 73.2623 115.262 73.7722 116.036C74.2118 116.688 74.8623 117.295 75.7239 117.858C76.4799 118.351 77.4294 118.642 78.5722 118.73C79.6272 118.818 80.4008 118.721 80.8931 118.439C81.1744 118.298 81.7986 117.638 82.7657 116.459C83.7854 115.209 84.5679 114.382 85.1129 113.977L87.803 111.785C89.0866 110.711 90.1327 109.902 90.9415 109.356C92.0141 108.616 94.0185 108.009 96.9547 107.534L98.1943 107.375H98.669L106.133 95.414L102.467 93.7769C99.7943 92.7735 97.9042 92.4654 96.7965 92.8527C95.4954 93.328 94.5459 93.8473 93.9481 94.4106C93.4031 94.9035 92.9987 95.5812 92.7349 96.4438C92.4185 97.5176 92.313 98.6794 92.4185 99.9292L91.3108 100.563C90.4844 101.073 89.8514 101.566 89.4118 102.042L87.091 104.55C85.9305 105.73 84.9986 106.574 84.2953 107.085C82.7657 108.176 81.0338 108.643 79.0997 108.484C79.2404 108.977 79.6184 109.417 80.2338 109.805L81.5525 110.729L82.6338 111.363C82.9151 111.591 83.0646 111.917 83.0821 112.34C83.0997 112.815 82.9063 113.545 82.5019 114.531C82.0975 115.499 81.825 115.957 81.6843 115.904L81.9744 114.98C82.2909 114.17 82.4228 113.343 82.3701 112.498C82.3701 112.322 82.2558 112.146 82.0272 111.97C81.8865 111.882 81.5437 111.679 80.9986 111.363L79.8382 110.702C79.1876 110.28 78.5986 109.646 78.0711 108.801L77.8601 108.326L77.4909 106.953L76.8316 103.916C76.6733 102.966 76.6469 102.05 76.7524 101.17L76.9898 100.14C78.1327 99.0315 78.8887 98.3978 79.2579 98.2393L80.1283 97.7904C80.4272 97.4736 80.5766 96.9191 80.5766 96.1269L80.5503 94.7539L80.6558 94.173L82.1327 93.064C83.1349 92.3774 83.7942 91.8141 84.1107 91.374C84.8844 90.3002 85.0514 89.3321 84.6118 88.4695L83.7415 87.4925L80.3129 86.3571L79.5744 87.0172C79.0821 87.5453 78.6601 87.871 78.3085 87.9942L76.5414 88.2847L75.2228 88.1526C74.9942 88.0294 74.3612 87.0788 73.3239 85.3009C72.2689 83.523 71.7063 82.4139 71.6359 81.9739Z" fill="#F29600"/>
<path d="M77.0163 91.1364C77.0866 91.8405 77.4646 92.2982 78.1503 92.5095C78.7833 92.7031 79.2932 92.6327 79.68 92.2982C80.4185 91.6645 81.0602 91.2332 81.6053 91.0044L82.4493 90.8724L83.0822 90.7931C83.6976 90.6875 84.1284 90.1858 84.3745 89.2881C84.5328 88.6719 84.5504 88.0558 84.4273 87.4397C84.2515 86.7004 83.8822 86.0755 83.3196 85.565C82.6515 84.9664 81.8427 84.7112 80.8932 84.7992C80.0317 84.8872 79.4514 85.1425 79.1525 85.565L78.9943 85.7234C77.8866 86.8324 77.2624 87.8182 77.1218 88.6807C76.9635 89.6665 76.9283 90.4851 77.0163 91.1364Z" fill="#0D131A"/>
<path d="M77.2271 90.3706L77.359 88.7335C77.4997 87.959 78.0975 87.0172 79.1524 85.9082L79.337 85.7234C79.6183 85.3713 80.1458 85.1513 80.9195 85.0632C81.7634 84.9576 82.5107 85.1865 83.1612 85.7498C83.8997 86.4187 84.2689 87.2549 84.2689 88.2583L84.1371 89.2088C83.9085 90.0186 83.548 90.4675 83.0557 90.5555L82.4228 90.6347L81.4997 90.7667C80.9546 91.0132 80.3744 91.4004 79.759 91.9285C79.3898 92.2102 78.915 92.307 78.3348 92.219C77.7019 92.1134 77.3502 91.7877 77.2799 91.242L77.2271 90.3706ZM76.8843 88.6543C76.7084 89.7105 76.77 90.6699 77.0689 91.5325C77.4029 92.4126 77.7194 92.9319 78.0183 93.0904C78.3172 93.2488 78.7216 93.0992 79.2315 92.6415C79.7414 92.1838 80.5678 91.7085 81.7107 91.2156L83.1348 91.0308C83.8381 90.9252 84.3305 90.3618 84.6118 89.3409C84.7876 88.6895 84.8052 88.0382 84.6645 87.3869C84.4887 86.6123 84.0931 85.9522 83.4777 85.4065C82.7744 84.7552 81.9041 84.4735 80.8667 84.5616L79.7063 84.8784L78.9678 85.4065L78.8095 85.5649C77.6843 86.6916 77.0425 87.7213 76.8843 88.6543Z" fill="#0D131A"/>
<path d="M80.8667 85.4857C80.3041 85.5737 79.9349 85.7234 79.759 85.9346L78.8623 86.938C78.3349 87.5893 78.0272 88.1614 77.9392 88.6543C77.7458 89.8513 77.7546 90.8195 77.9656 91.5589L78.3612 92.3246L78.5458 92.1398C78.8272 91.3476 79.548 90.5291 80.7085 89.6841L81.447 89.4993C81.8865 89.4289 82.2557 89.2968 82.5547 89.1032L83.6887 87.915C83.6184 87.1404 83.3107 86.5243 82.7656 86.0666C82.2382 85.5913 81.6052 85.3977 80.8667 85.4857Z" fill="white"/>
<path d="M82.8975 89.8954C83.1085 89.8601 83.3019 89.6489 83.4777 89.2616C83.6536 88.8392 83.7239 88.3903 83.6887 87.915L82.5546 89.1032C82.2557 89.2968 81.8865 89.4289 81.4469 89.4993L80.7085 89.6841C79.548 90.5291 78.8272 91.3476 78.5458 92.1398C79.5832 91.154 80.5063 90.4851 81.3151 90.133L82.0799 89.9746L82.8975 89.8954Z" fill="#DBDCDC"/>
<path d="M67.4425 77.3266C66.5458 77.7315 65.9656 78.418 65.7018 79.3862C65.526 80.0023 65.4996 80.6712 65.6227 81.393C65.7106 82.0267 65.8601 82.4756 66.0711 82.7396C68.4799 85.0633 70.0623 86.3131 70.8183 86.4891C71.17 86.5419 71.4249 86.4715 71.5832 86.2779C71.97 85.8026 72.2425 84.7992 72.4008 83.2677C72.5766 81.6482 72.4799 80.46 72.1107 79.7031C71.0381 77.221 69.4821 76.4288 67.4425 77.3266Z" fill="#0D131A"/>
<path d="M67.6273 77.7227C68.6647 77.265 69.5438 77.309 70.2647 77.8547C70.7922 78.242 71.2757 78.9197 71.7153 79.8879C72.0493 80.6096 72.1636 81.7627 72.0581 83.3469C71.9702 84.8608 71.7768 85.8026 71.4779 86.1723L71.0823 86.2251C70.6779 86.1371 69.8251 85.5386 68.524 84.4296L66.4141 82.4756L66.124 81.7362L65.9921 80.5216L66.124 79.4918C66.335 78.6645 66.8361 78.0748 67.6273 77.7227ZM72.3482 79.5182C71.9087 78.2156 71.2317 77.3354 70.3174 76.8777C69.4207 76.42 68.4097 76.4377 67.2845 76.9305C66.1943 77.4058 65.5174 78.3124 65.2537 79.6503C65.0075 80.9177 65.2273 81.9827 65.913 82.8453C66.5812 83.7958 67.5394 84.7464 68.7878 85.697C70.1065 86.718 71.012 87.1317 71.5043 86.938C72.0493 86.7268 72.4361 85.7938 72.6647 84.1391C72.9109 82.3964 72.8054 80.8561 72.3482 79.5182Z" fill="#0D131A"/>
<path d="M71.4514 79.7559C71.0294 78.8229 70.5635 78.1804 70.0536 77.8283L67.7591 77.7491C67.2668 77.9427 66.88 78.2948 66.5987 78.8053C66.669 79.8087 66.9327 80.6712 67.3899 81.393C68.5503 83.1357 69.8338 84.7024 71.2404 86.0931C71.5218 86.1283 71.7152 85.2745 71.8207 83.5318C71.9262 81.7538 71.8031 80.4952 71.4514 79.7559Z" fill="white"/>
<path d="M68.7613 84.1655C70.0449 85.3625 70.8625 86.005 71.2141 86.093H71.2405C69.8339 84.7024 68.5504 83.1357 67.3899 81.393C66.9328 80.6712 66.669 79.8087 66.5987 78.8053C66.3174 79.351 66.2207 80.0199 66.3086 80.812C66.3789 81.4106 66.4932 81.833 66.6514 82.0795L68.7613 84.1655Z" fill="#DBDCDC"/>
<path d="M66.8361 93.0375L65.5701 90.6347C65.0954 90.089 64.4976 89.8073 63.7767 89.7897C63.0558 89.7897 62.4053 90.089 61.8251 90.6875C61.1921 91.3212 60.9547 92.1398 61.113 93.1432C61.2712 93.9353 61.8163 94.5602 62.7481 95.0179L64.7789 95.7309C65.9921 96.1005 66.8185 96.259 67.2581 96.2061L67.8119 96.1533C67.9526 95.7485 67.6273 94.7099 66.8361 93.0375Z" fill="#0D131A"/>
<path d="M66.7833 93.5392C67.469 95.0531 67.7855 95.8805 67.7327 96.0213L66.9152 95.9685L65.069 95.6516C64.4536 95.4932 63.7064 95.194 62.8272 94.7539C61.9657 94.3138 61.4734 93.7593 61.3503 93.0904L61.3239 92.5623C61.3239 91.8757 61.5437 91.3124 61.9833 90.8723C62.5459 90.2914 63.1349 90.0186 63.7503 90.0538C64.4184 90.0538 64.9547 90.2914 65.3591 90.7667L66.7833 93.5392ZM68.2338 96.4966C68.4273 96.3206 68.2163 95.4492 67.6009 93.8825C66.9679 92.263 66.3525 91.1188 65.7547 90.4499C65.2097 89.869 64.5503 89.5697 63.7767 89.5521C62.9855 89.5521 62.2734 89.8778 61.6404 90.5291C60.9371 91.2332 60.6822 92.1134 60.8756 93.1696C60.9635 93.6801 61.1745 94.1554 61.5085 94.5954L62.5371 95.4668C62.9943 95.7133 63.9965 95.9861 65.5437 96.2854L68.2338 96.4966Z" fill="#0D131A"/>
<path d="M61.693 91.8757C62.1677 92.5975 62.8447 93.2928 63.7238 93.9617C64.8139 94.7539 66.0711 95.3876 67.4952 95.8629C67.6535 95.8453 67.3106 95.0355 66.4667 93.4336C65.6579 91.9022 65.1392 91.0044 64.9106 90.7403C64.6117 90.4235 64.26 90.2386 63.8557 90.1858C63.2754 90.0978 62.7304 90.3178 62.2205 90.8459C61.9216 91.1452 61.7458 91.4885 61.693 91.8757Z" fill="white"/>
<path d="M62.7217 94.4634L65.0426 95.282C66.3613 95.7045 67.1789 95.8981 67.4954 95.8629C66.0712 95.3876 64.814 94.7539 63.7239 93.9617C62.8448 93.2928 62.1679 92.5975 61.6931 91.8757C61.6228 92.4038 61.7283 92.9583 62.0096 93.5393C62.2382 94.0145 62.4756 94.3226 62.7217 94.4634Z" fill="#DBDCDC"/>
<path d="M71.5568 93.6184C72.0491 94.0233 72.5238 94.5074 72.981 95.0707C73.9128 96.2149 74.3172 97.2007 74.1942 98.0281C74.1238 98.5914 73.9304 99.1459 73.6139 99.6916C74.5458 99.4627 75.3194 98.9258 75.9348 98.0809C76.5502 97.2183 76.8579 96.2413 76.8579 95.1499C76.8579 93.8649 76.4535 92.7647 75.6447 91.8493C74.8535 90.9339 73.8865 90.4763 72.7436 90.4763C72.0403 90.4763 71.381 90.6699 70.7656 91.0572C70.1678 91.4268 69.6755 91.9285 69.2886 92.5622C70.3612 92.9143 71.1172 93.2664 71.5568 93.6184Z" fill="#D18200"/>
<path d="M71.5569 93.6185C71.258 93.3896 70.7393 93.1256 70.0009 92.8263C69.28 92.5271 68.9019 92.4127 68.8668 92.4831L69.7899 93.0112L71.1877 93.8033C71.6624 94.173 72.1811 94.7979 72.7437 95.6781C73.3943 96.7343 73.6756 97.588 73.5877 98.2394C73.4294 99.3836 72.7701 100.466 71.6097 101.487L69.9745 102.728C70.0624 102.957 70.7129 102.579 71.9261 101.593C73.2448 100.519 74.0009 99.3308 74.1943 98.0281C74.3174 97.2008 73.913 96.215 72.9811 95.0708C72.5239 94.5074 72.0492 94.0234 71.5569 93.6185Z" fill="#0D131A"/>
<path d="M83.2669 120.921L82.8186 122.004C82.4493 122.831 82.0713 123.5 81.6845 124.011L78.2823 127.443C76.0845 129.925 74.0361 133.076 72.1372 136.896C70.0273 141.121 68.7086 145.02 68.1811 148.594C67.7943 151.322 67.8558 154.095 68.3657 156.911C68.6998 158.848 69.2273 160.819 69.9482 162.826L71.0031 165.73C71.1262 166.347 71.1965 167.024 71.2141 167.764C71.2493 168.521 71.2053 168.952 71.0822 169.057L69.3416 170.457C68.0932 171.513 67.2404 172.349 66.7833 172.965L64.2514 176.16L63.6448 176.477C63.2053 176.724 62.9503 176.944 62.88 177.137C62.6338 177.736 62.669 178.51 62.9855 179.461C63.3723 180.57 64.0404 181.38 64.9899 181.89L67.1789 183.052C67.2844 181.996 67.4778 181.547 67.7591 181.705C68.691 182.269 69.5877 182.392 70.4493 182.075V184.029L74.168 184.399L76.0405 184.478C76.779 182.788 77.3856 182.146 77.8603 182.55C78.3174 182.955 78.9152 183.078 79.6537 182.92C80.3043 182.779 80.8054 182.498 81.157 182.075L81.2361 184.452C83.7504 184.364 85.79 184.099 87.3548 183.659L88.0933 181.573C88.6208 181.292 89.0779 180.843 89.4647 180.227C89.8516 179.593 90.1065 178.898 90.2296 178.141C89.8603 176.099 89.0164 174.048 87.6977 171.988C87.5922 171.795 87.557 171.02 87.5922 169.665L86.5373 169.876L84.1372 169.982L82.8977 169.797L84.1109 169.586L86.3263 169.216L87.6186 168.846V168.82C88.023 168.732 88.6032 168.433 89.3592 167.922C90.8889 166.883 92.5329 165.282 94.2911 163.116C96.1021 160.881 97.2714 158.319 97.7989 155.432C98.0802 153.901 98.1769 151.885 98.089 149.386C97.9835 146.446 97.0604 143.427 95.3197 140.329L92.7351 136.553L83.2669 120.921Z" fill="#F29600"/>
<path d="M67.7591 181.705C67.4778 181.547 67.2844 181.996 67.1789 183.052C68.0404 183.475 69.1305 183.8 70.4492 184.029V182.075C69.5877 182.392 68.691 182.269 67.7591 181.705Z" fill="#D18200"/>
<path d="M77.8602 182.55C77.3855 182.146 76.7789 182.788 76.0404 184.478C77.8339 184.531 79.5657 184.522 81.2361 184.452L81.157 182.075C80.8053 182.498 80.3042 182.779 79.6537 182.92C78.9152 183.078 78.3174 182.955 77.8602 182.55Z" fill="#D18200"/>
<path d="M90.2295 178.141C90.1064 178.898 89.8514 179.593 89.4646 180.227C89.0778 180.843 88.6207 181.292 88.0932 181.573L87.3547 183.659C89.3767 183.131 90.4141 182.348 90.4668 181.309C90.5196 180.306 90.4405 179.25 90.2295 178.141Z" fill="#D18200"/>
<path d="M67.1526 181.336L67.2581 181.389C66.8361 180.332 66.2998 179.514 65.6493 178.933C64.946 178.317 64.4361 177.93 64.1196 177.771C63.7679 177.577 63.4954 177.604 63.302 177.85L62.1415 179.672L60.7965 182.154C60.2514 183.387 60.0316 184.54 60.1371 185.613C60.1899 186.159 60.2954 186.573 60.4536 186.854C60.5591 186.115 61.0866 185.323 62.036 184.478C62.8097 183.791 63.4602 183.351 63.9877 183.158C64.6383 182.946 65.2449 182.709 65.8075 182.445C66.6515 182.022 67.0998 181.653 67.1526 181.336Z" fill="white"/>
<path d="M67.5217 182.973C67.7503 182.885 67.6624 182.357 67.258 181.389L67.1525 181.336C67.0997 181.653 66.6514 182.022 65.8074 182.445C65.2448 182.709 64.6382 182.946 63.9876 183.158C63.4601 183.351 62.8096 183.791 62.036 184.478C61.0865 185.323 60.559 186.115 60.4535 186.854C61.4733 185.798 62.2206 185.147 62.6953 184.9L65.2272 183.871L67.5217 182.973Z" fill="#DBDCDC"/>
<path d="M73.1657 178.405L71.4514 180.781C70.4316 182.366 69.9217 183.624 69.9217 184.557C69.9217 186.229 70.1063 187.559 70.4756 188.544L71.0294 189.495L71.2668 189.152C71.214 188.113 71.7679 187.066 72.9283 186.009C73.7371 185.252 74.5283 184.716 75.302 184.399C76.5152 183.871 77.2009 183.202 77.3591 182.392C76.9372 181.195 76.4624 180.306 75.9349 179.725C75.3723 179.127 74.7833 178.704 74.1679 178.458L73.1657 178.405Z" fill="white"/>
<path d="M75.3019 184.399C74.5283 184.716 73.7371 185.252 72.9283 186.009C71.7678 187.066 71.214 188.113 71.2667 189.152L72.4008 187.805C72.7525 187.471 73.6755 186.846 75.1701 185.93C76.5942 185.05 77.4294 184.575 77.6756 184.504C77.7811 184.487 77.7986 184.267 77.7283 183.844C77.6756 183.422 77.5525 182.938 77.3591 182.392C77.2008 183.202 76.5151 183.871 75.3019 184.399Z" fill="#DBDCDC"/>
<path d="M86.7482 179.408C86.3614 178.933 85.957 178.554 85.535 178.273C85.0427 177.974 84.7087 177.93 84.5328 178.141L82.8449 180.174C81.8955 181.371 81.368 182.154 81.2625 182.524C80.9812 183.475 81.1922 184.848 81.8955 186.643C82.2471 187.541 82.6339 188.342 83.0559 189.046L83.2142 188.782V188.65C83.2669 187.77 83.5834 186.925 84.1636 186.115L85.6405 184.399L86.8801 183.131L87.9351 181.943C87.5131 180.693 87.1175 179.848 86.7482 179.408Z" fill="white"/>
<path d="M85.6405 184.399L84.1635 186.115C83.5833 186.925 83.2668 187.77 83.2141 188.65V188.782C83.8822 187.779 84.3657 187.118 84.6646 186.802L88.146 183.422C88.2866 183.316 88.2163 182.823 87.935 181.943L86.88 183.131L85.6405 184.399Z" fill="#DBDCDC"/>
<path d="M66.9414 181.045C67.3283 181.873 67.4953 182.454 67.4425 182.788L67.337 182.946L66.7041 183.184L62.748 184.768C62.3084 185.015 61.5964 185.64 60.6117 186.643C60.4535 186.397 60.348 185.983 60.2952 185.402C60.1897 184.399 60.4007 183.325 60.9282 182.181L62.1942 179.804L63.3282 178.062C63.4161 177.938 63.5216 177.877 63.6447 177.877C63.9436 177.842 64.5854 178.246 65.57 179.091C66.0623 179.531 66.5195 180.183 66.9414 181.045ZM67.0469 184.108L67.7063 183.844C68.0755 183.721 68.3041 183.431 68.392 182.973C68.4799 182.427 68.2865 181.653 67.8118 180.649C67.337 179.646 66.8008 178.88 66.203 178.352L64.7788 177.243C64.3216 176.979 63.9085 176.865 63.5392 176.9C63.1524 176.953 62.8183 177.146 62.537 177.481L61.3766 179.303L60.0579 181.785C59.4425 183.122 59.2051 184.399 59.3458 185.613C59.4161 186.229 59.5568 186.731 59.7678 187.118L60.0843 187.699L60.4535 187.937C60.6117 187.972 60.7436 187.919 60.8491 187.779L61.2975 187.33C62.2821 186.344 62.9238 185.781 63.2227 185.64C63.6447 185.393 64.9194 184.883 67.0469 184.108Z" fill="#0D131A"/>
<path d="M77.5702 184.372L77.4647 184.504C77.201 184.592 76.401 185.05 75.0647 185.877C73.6581 186.722 72.7878 187.303 72.4537 187.62L71.1614 189.231C70.968 189.072 70.7922 188.764 70.6339 188.307C70.2823 187.374 70.1065 186.115 70.1065 184.531C70.1065 183.228 71.0999 181.327 73.0867 178.827L73.1922 178.669L73.4559 178.563C73.7197 178.546 74.0449 178.642 74.4318 178.854C74.9241 179.1 75.39 179.461 75.8296 179.936C76.3043 180.447 76.7351 181.239 77.1219 182.313C77.5087 183.334 77.6582 184.02 77.5702 184.372ZM77.7812 185.429C78.1329 185.323 78.3702 185.059 78.4933 184.636C78.6516 184.091 78.5109 183.211 78.0713 181.996C77.6142 180.799 77.1043 179.892 76.5417 179.276C76.0494 178.73 75.5131 178.308 74.9329 178.009C74.3702 177.71 73.8603 177.569 73.4032 177.586C72.9812 177.621 72.6471 177.789 72.401 178.088L72.3219 178.22C70.1944 180.896 69.1306 182.999 69.1306 184.531C69.1306 186.256 69.3328 187.647 69.7372 188.703C69.9658 189.301 70.2295 189.733 70.5284 189.997L70.9504 190.34L71.346 190.472L71.6889 190.234L71.979 189.759C72.3307 189.196 72.7087 188.72 73.1131 188.333C73.3944 188.069 74.1944 187.532 75.5131 186.722C76.7966 185.93 77.5527 185.499 77.7812 185.429Z" fill="#0D131A"/>
<path d="M84.2955 178.695L84.5328 178.405C84.6207 178.317 84.7174 178.273 84.8229 178.273C85.0691 178.273 85.368 178.414 85.7197 178.695C86.0713 178.959 86.379 179.267 86.6427 179.619C86.9241 179.954 87.2493 180.605 87.6186 181.573C88.0054 182.594 88.1284 183.219 87.9878 183.448L86.4317 184.9L84.6647 186.643C84.2955 187.048 83.7856 187.761 83.135 188.782C82.5724 187.831 82.1152 186.837 81.7636 185.798C81.3064 184.408 81.1922 183.334 81.4207 182.577C81.5614 182.084 82.5196 180.79 84.2955 178.695ZM87.4076 179.012C87.179 178.695 86.8625 178.37 86.4581 178.035C85.8603 177.542 85.3152 177.296 84.8229 177.296C84.4185 177.296 84.0757 177.454 83.7944 177.771L83.557 178.062C81.6933 180.244 80.6735 181.653 80.4976 182.286C80.1812 183.343 80.3482 184.768 80.9987 186.564C81.368 187.532 81.7988 188.439 82.2911 189.284L82.6867 189.97L83.1086 190.234L83.5042 189.997L83.9526 189.31L85.3768 187.303L88.6208 184.161C89.1307 183.721 89.1043 182.762 88.5416 181.283C88.1197 180.209 87.7416 179.452 87.4076 179.012Z" fill="#0D131A"/>
<path d="M84.5063 171.143L85.9832 170.827C86.4931 170.651 86.7305 170.519 86.6953 170.431L86.036 170.51L84.6909 170.695L82.5283 170.642C81.5788 170.589 81.1041 170.589 81.1041 170.642L82.4491 170.959L84.5063 171.143Z" fill="#0D131A"/>
<path d="M108.823 5.02979C107.557 4.94177 106.502 5.83954 105.658 7.7231C105.43 8.21599 105.157 9.29859 104.841 10.9709L104.181 14.6676C104.058 15.3893 103.451 18.065 102.361 22.6947C101.975 24.3846 100.735 26.8843 98.6427 30.1937L97.1394 32.8342L96.691 34.2865C96.6207 34.8498 96.9108 36.1436 97.5613 38.168C97.2273 39.277 97.1042 40.8613 97.1921 42.9209L95.4778 47.8058L94.5547 50.1823L93.4734 52.3211C93.3327 52.5499 93.0778 52.6732 92.7086 52.6908C92.3921 52.726 92.0844 53.0252 91.7855 53.5885C91.2053 54.6975 91.7943 56.7659 93.5525 59.7937L96.3481 64.0185C96.1196 65.5148 96.8229 66.5006 98.458 66.9758L102.177 67.4247C102.581 67.4775 103.17 67.7152 103.944 68.1377C104.647 68.5073 105.456 68.6922 106.37 68.6922C107.46 68.6922 108.726 68.2873 110.168 67.4775C111.416 66.8086 112.181 66.2453 112.463 65.7876L114.124 63.728L116.419 60.9555L119.504 57.5757L122.326 54.6183C122.696 54.1958 123.144 53.9054 123.671 53.747L124.331 53.6413C125.526 52.5851 126.546 51.2121 127.39 49.5222C128.058 48.1667 128.392 47.2073 128.392 46.644C128.392 46.2391 128.296 45.4206 128.102 44.1884C127.891 42.8681 127.671 41.8031 127.443 40.9934C126.915 39.1274 126.652 37.5783 126.652 36.3461C126.652 35.2723 127.118 33.4063 128.049 30.7482C128.454 29.5512 129.746 27.1572 131.926 23.5661L134.221 20.7407L136.911 17.5986C137.474 16.912 137.729 16.0495 137.676 15.0109C137.623 14.1131 137.412 13.5322 137.043 13.2681C136.674 13.0041 136.049 12.8633 135.17 12.8457C134.344 12.8457 133.693 12.9425 133.219 13.1361C132.814 13.2945 132.014 13.9547 130.819 15.1165L127.311 18.6284C124.41 21.5329 121.913 23.7069 119.821 25.1504C118.942 25.7665 117.702 25.8985 116.102 25.5465C114.819 25.2824 113.544 24.7807 112.278 24.0414C111.381 23.5133 110.81 22.5099 110.564 21.0312C110.458 20.3623 110.405 19.0948 110.405 17.2289L110.695 12.2648C110.871 9.8883 110.95 8.49764 110.933 8.09277C110.898 7.31822 110.739 6.6757 110.458 6.1652C110.106 5.46107 109.561 5.0826 108.823 5.02979Z" fill="#F29600"/>
<path d="M102.994 57.4701L101.755 57.9454L100.7 58.0774L99.7767 58.051L99.2756 57.9189L98.9855 57.9718C98.9328 58.1126 99.0734 58.2446 99.4075 58.3678L100.673 58.5791C101.482 58.5791 102.309 58.3678 103.153 57.9454C103.364 57.8397 103.724 57.7605 104.234 57.7077L105.236 57.6813C105.447 57.7165 106.036 58.2182 107.003 59.1864C107.355 59.5385 107.619 59.5913 107.794 59.3448C107.917 59.1864 107.75 58.9223 107.293 58.5527L106.186 57.7341C105.57 57.3292 105.043 57.1268 104.603 57.1268C104.146 57.1268 103.61 57.2412 102.994 57.4701Z" fill="#0D131A"/>
<path d="M102.942 61.6949L104.102 61.378L105.025 61.6421C105.412 61.6949 105.676 61.6244 105.816 61.4308C105.887 61.3252 105.755 61.1492 105.421 60.9027C105.087 60.6739 104.814 60.5506 104.603 60.533C104.41 60.5154 104.076 60.6211 103.601 60.8499L102.731 61.3516C102.608 61.4572 102.572 61.554 102.625 61.6421L102.942 61.6949Z" fill="#0D131A"/>
<path d="M93.5525 56.942C93.4646 57.0476 93.5173 57.2236 93.7107 57.4701L94.1855 57.9982L95.0822 59.3712C95.2228 59.6177 95.3811 59.7233 95.5569 59.6881C95.7503 59.6353 95.7943 59.512 95.6888 59.3184C95.5657 59.072 95.2492 58.5967 94.7393 57.8925C94.6162 57.6813 94.3965 57.4613 94.08 57.2324C93.7635 56.986 93.5877 56.8891 93.5525 56.942Z" fill="#0D131A"/>
<path d="M107.557 40.9669L107.636 40.6765C107.636 40.5533 107.592 40.474 107.504 40.4388L107.056 40.6501L106.713 41.6007L106.37 42.0759L106.186 42.4984L106.397 43.0001C106.555 43.1409 106.687 43.1938 106.792 43.1586C106.915 43.1057 106.977 42.7801 106.977 42.1816L107.214 41.5743L107.557 40.9669Z" fill="#0D131A"/>
<path d="M106.792 43.449C106.634 43.5194 106.687 44.0651 106.95 45.0861L108.164 48.5452L108.849 49.4694C109.236 49.8566 109.482 50.0151 109.588 49.9447C109.764 49.8214 109.667 49.4782 109.298 48.9149L108.955 48.466L108.612 47.9379L107.953 46.3536L107.32 44.6901C107.056 43.7923 106.88 43.3786 106.792 43.449Z" fill="#0D131A"/>
<path d="M100.647 40.8877L100.515 41.3102L100.489 42.0495L100.647 43.317C100.647 44.1619 100.788 44.558 101.069 44.5052C101.245 44.47 101.333 44.338 101.333 44.1091L101.28 43.5282L100.99 42.34C100.867 41.3894 100.753 40.9053 100.647 40.8877Z" fill="#0D131A"/>
<path d="M112.7 60.9555L112.621 62.3814C112.639 62.6806 112.507 62.8831 112.225 62.9887C111.944 63.0943 111.68 62.9799 111.434 62.6454L111.118 63.1207C111.522 63.6312 111.962 63.8865 112.436 63.8865C112.753 63.8865 112.99 63.508 113.148 62.7511C113.307 62.0117 113.359 61.1051 113.307 60.0313L112.7 60.9555Z" fill="#0D131A"/>
<path d="M112.331 63.0943C112.647 62.9535 112.77 62.2405 112.7 60.9555L111.434 62.6454L111.962 63.0679L112.331 63.0943Z" fill="white"/>
<path d="M97.5879 39.6731L97.4824 40.3596C97.3769 41.187 97.3681 42.0671 97.456 43.0001C97.4736 43.3698 97.6582 43.8715 98.0099 44.5052C98.4494 45.2797 98.9681 45.8078 99.5659 46.0895C99.5308 45.0333 99.3549 44.0123 99.0384 43.0265C98.6692 41.8999 98.1857 40.7821 97.5879 39.6731Z" fill="white"/>
<path d="M56.7611 42.1816C56.638 42.1288 56.4534 42.208 56.2073 42.4192L55.7325 42.9209C53.8512 45.4206 52.0578 49.5486 50.3523 55.3049C48.5765 61.2548 47.3457 67.4599 46.66 73.9203C46.5896 74.4837 46.5984 74.9854 46.6863 75.4254C46.7567 75.8303 46.871 76.0415 47.0292 76.0592C47.3457 76.0944 47.5655 75.4078 47.6885 73.9996C48.2688 68.1553 49.4292 62.2582 51.1699 56.3082C52.7875 50.7632 54.5281 46.424 56.3919 43.2906C56.7963 42.6217 56.9194 42.252 56.7611 42.1816Z" fill="#0D131A"/>
<path d="M49.2182 46.9345C49.0952 46.8817 48.8314 47.1281 48.427 47.6738L47.7677 48.6772C43.6534 60.0489 42.1061 70.8838 43.1259 81.1817L43.2314 82.502C43.3193 83.2413 43.4248 83.611 43.5479 83.611C43.6534 83.611 43.7676 83.2853 43.8907 82.634L44.049 81.4194C43.627 67.9704 45.227 57.0828 48.849 48.7564C49.3413 47.6474 49.4644 47.0401 49.2182 46.9345Z" fill="#0D131A"/>
<path d="M159.566 48.862L159.223 48.3339C159.065 48.1051 158.933 48.0083 158.828 48.0435C158.705 48.0787 158.643 48.2547 158.643 48.5716L158.749 49.2581C159.768 52.0746 160.542 55.9298 161.07 60.8235C161.65 66.0517 161.764 70.8838 161.412 75.3198V76.2968C161.448 76.7897 161.527 77.0361 161.65 77.0361C161.773 77.0361 161.896 76.7897 162.019 76.2968L162.177 75.3462C162.722 70.7694 162.705 65.6644 162.124 60.0313C161.562 54.4687 160.709 50.7456 159.566 48.862Z" fill="#0D131A"/>
<path d="M163.206 55.0144C163.047 54.4863 162.88 54.2486 162.705 54.3015C162.581 54.3191 162.502 54.4599 162.467 54.7239V55.3048C163.68 60.0401 164.595 64.8898 165.21 69.854C165.861 75.135 166.107 80.0991 165.948 84.7464C165.948 85.7674 166.036 86.2867 166.212 86.3043C166.335 86.3043 166.423 86.0842 166.476 85.6442L166.529 84.7464C167.144 80.1871 167.1 75.1878 166.397 69.7484C165.799 64.9955 164.735 60.0841 163.206 55.0144Z" fill="#0D131A"/>
<path d="M119.241 40.6237C119.012 40.5181 118.757 40.5533 118.476 40.7293L113.069 44.7429L112.7 45.0597C112.384 45.2534 112.155 45.5438 112.014 45.9311L111.645 46.6968L111.091 47.9907L111.197 48.3603L112.357 48.4131L115.654 47.7794L115.944 47.7002L118.74 46.9609C119.461 46.6968 119.865 46.3888 119.953 46.0367C120.041 45.6318 120.05 44.8837 119.979 43.7923L119.715 41.363C119.645 40.9757 119.487 40.7293 119.241 40.6237Z" fill="white"/>
<path d="M119.241 40.6237C119.012 40.5181 118.757 40.5533 118.476 40.7293L113.069 44.7429L112.7 45.0597C112.384 45.2534 112.155 45.5438 112.014 45.9311L111.645 46.6968L111.091 47.9907L111.197 48.3603L112.357 48.4131L115.654 47.7794L115.944 47.7002L118.74 46.9609C119.461 46.6968 119.865 46.3888 119.953 46.0367C120.041 45.6318 120.05 44.8837 119.979 43.7923L119.715 41.363C119.645 40.9757 119.487 40.7293 119.241 40.6237Z" fill="white"/>
<path d="M116.392 42.208L116.34 42.2608L112.7 45.0597C112.383 45.2534 112.155 45.5438 112.014 45.9311L111.645 46.6968L111.091 47.9907L111.197 48.3603L112.357 48.4131L115.416 47.8322C116.173 46.6352 116.551 45.2886 116.551 43.7923C116.551 43.2466 116.498 42.7185 116.392 42.208Z" fill="#008086"/>
<path d="M99.1966 46.1951L99.856 46.5384L99.8296 46.0631C99.812 44.9717 99.6362 43.9331 99.3021 42.9473L98.5373 40.9669C98.2911 41.6183 98.168 42.296 98.168 43.0001C98.168 44.2148 98.5109 45.2798 99.1966 46.1951Z" fill="#008086"/>
<path d="M99.2494 45.1918C99.4076 45.1918 99.5659 45.0861 99.7241 44.8749L99.3021 42.9473C99.1087 42.3312 98.8626 41.6975 98.5637 41.0462C98.3175 41.5391 98.1944 42.1376 98.1944 42.8417C98.1944 43.493 98.2999 44.0475 98.5109 44.5052C98.7043 44.9629 98.9505 45.1918 99.2494 45.1918Z" fill="#00666C"/>
<path d="M98.88 44.6111C99.0031 45.1042 99.2581 45.3155 99.645 45.245C99.6098 44.8753 99.4691 44.3206 99.2229 43.5811C98.8888 43.8628 98.7744 44.2062 98.88 44.6111Z" fill="#0D131A"/>
<path d="M116.392 42.208L116.34 42.2608L112.7 45.0597C112.383 45.2534 112.155 45.5438 112.014 45.9311L111.434 47.1457L113.808 47.3041C114.757 47.1281 115.548 46.732 116.181 46.1159C116.427 45.3766 116.551 44.602 116.551 43.7923C116.551 43.2466 116.498 42.7185 116.392 42.208Z" fill="#00666C"/>
<path d="M115.205 47.6474L115.838 47.621C116.507 46.4768 116.841 45.2005 116.841 43.7923C116.841 43.2994 116.779 42.7097 116.656 42.0231L116.63 41.9967C116.612 42.2432 116.454 42.3664 116.155 42.3664L116.287 43.7923C116.287 45.1829 115.926 46.468 115.205 47.6474Z" fill="#0D131A"/>
<path d="M113.729 47.1457C114.027 47.1457 114.274 47.0401 114.467 46.8289C114.643 46.6176 114.731 46.3712 114.731 46.0895C114.731 45.8079 114.643 45.5614 114.467 45.3502C114.274 45.1565 114.054 45.0597 113.808 45.0597C113.579 45.0597 113.377 45.1653 113.201 45.3766C113.025 45.5878 112.937 45.8343 112.937 46.1159L113.122 46.8025L113.729 47.1457Z" fill="#0D131A"/>
<path d="M114.757 45.7468C115.021 45.7468 115.232 45.6499 115.39 45.4563C115.531 45.2802 115.601 45.0777 115.601 44.8488C115.601 44.5846 115.522 44.3645 115.364 44.1885C115.188 43.9948 114.986 43.8979 114.757 43.8979C114.546 43.8979 114.352 44.0036 114.176 44.2149C114.018 44.4086 113.939 44.6375 113.939 44.9016L114.176 45.4827C114.352 45.6587 114.546 45.7468 114.757 45.7468Z" fill="white"/>
<path d="M99.0384 44.004L99.3549 43.7662L99.4604 43.2908C99.4604 43.0619 99.4165 42.877 99.3285 42.7362C99.2582 42.5777 99.1615 42.4984 99.0384 42.4984L98.7482 42.7626L98.6426 43.3172L98.7482 43.7927L99.0384 44.004Z" fill="white"/>
<path d="M118.634 40.967C119.074 40.7029 119.346 40.8525 119.452 41.4158L119.715 43.8187C119.786 44.8749 119.777 45.5878 119.689 45.9575C119.601 46.3096 118.977 46.644 117.817 46.9609L115.575 47.489L112.304 48.1491L111.54 48.2283C111.399 48.2107 111.337 48.1403 111.355 48.0171L112.252 46.0367C112.357 45.7727 112.559 45.5174 112.858 45.271C114.054 44.3028 114.933 43.6075 115.496 43.185L118.634 40.967ZM119.188 40.0428C118.01 40.7117 116.779 41.5215 115.496 42.472L112.858 44.6637L112.225 45.2182C111.944 45.4646 111.768 45.6846 111.698 45.8783L110.326 48.7564L110.142 49.2317C110.107 49.4077 110.168 49.5222 110.326 49.575L110.537 49.4165L110.669 49.0733C110.704 48.9853 110.836 48.8972 111.065 48.8092L111.724 48.6772C112.269 48.6772 113.351 48.5012 114.968 48.1491L119.082 47.1457C119.469 46.9873 119.786 46.7056 120.032 46.3008C120.313 45.8607 120.454 45.3414 120.454 44.7429C120.454 44.25 120.401 43.5546 120.296 42.6569L120.164 41.2574L120.111 40.7029L120.164 40.2276C120.656 39.6995 120.876 39.3915 120.823 39.3034C120.753 39.2154 120.208 39.4619 119.188 40.0428Z" fill="#0D131A"/>
<path d="M98.0625 42.9209C98.0625 44.5228 98.5636 45.8079 99.5658 46.7761L99.9614 46.644C99.5043 46.2392 99.1438 45.7199 98.8801 45.0861C98.5988 44.4348 98.4581 43.7395 98.4581 43.0002C98.4581 42.3488 98.5636 41.7415 98.7746 41.1782L98.4845 40.6765C98.2032 41.4159 98.0625 42.164 98.0625 42.9209Z" fill="#0D131A"/>
<path d="M97.4823 40.3596L97.5878 39.6731C98.1856 40.7821 98.6691 41.8999 99.0383 43.0265C99.3548 44.0123 99.5306 45.0333 99.5658 46.0895C98.968 45.8079 98.4493 45.2798 98.0098 44.5052C97.6581 43.8715 97.4735 43.3698 97.4559 43.0001C97.368 42.0672 97.3768 41.187 97.4823 40.3596ZM105.685 8.62086C106.353 6.47326 107.311 5.39946 108.559 5.39946C109.386 5.39946 109.975 5.87475 110.326 6.82532C110.59 7.56466 110.678 8.40082 110.59 9.3338L110.247 13.6114L110.036 18.9188C110.071 20.7495 110.326 22.0962 110.801 22.9588C111.153 23.5749 111.803 24.1734 112.753 24.7543C113.509 25.212 114.414 25.5376 115.469 25.7313L117.896 25.8897L116.867 26.3386L115.627 26.9987L114.652 27.7645L113.386 28.8471C112.981 29.3048 112.779 29.5952 112.779 29.7184C112.797 29.8593 113.087 29.7272 113.649 29.3224L114.731 28.6094L115.575 27.9757C116.032 27.518 116.507 27.2276 116.999 27.1043C117.333 27.0515 117.773 26.8755 118.318 26.5762C118.968 26.2418 119.557 25.8369 120.085 25.3616C122.405 23.4429 124.489 21.6033 126.335 19.843L132.454 13.9547C132.946 13.497 133.685 13.2241 134.669 13.1361C135.654 13.0305 136.366 13.1713 136.806 13.5586C137.21 13.9107 137.386 14.5004 137.333 15.3277C137.28 16.0671 137.104 16.6392 136.806 17.044L134.326 19.975L131.557 23.4869C128.058 29.0847 126.309 33.2831 126.309 36.082C126.309 37.3671 126.423 38.5729 126.652 39.6995L127.258 41.9703L127.786 44.2676C127.962 45.2182 128.049 45.9047 128.049 46.3272C128.049 46.8377 127.926 47.445 127.68 48.1491C127.417 48.9589 127.038 49.7158 126.546 50.4199C125.421 52.0746 124.718 53.0252 124.436 53.2717L123.935 53.3509C123.636 53.3509 123.408 53.4037 123.249 53.5093L121.377 54.988C120.234 56.009 119.267 57.0036 118.476 57.9718L114.863 62.1173C113.579 63.6136 112.797 64.6258 112.515 65.1539C112.252 65.594 111.54 66.1925 110.379 66.9494C108.92 67.9 107.61 68.3753 106.449 68.3753C105.852 68.3753 105.28 68.2609 104.735 68.032L103.733 67.5304C102.871 67.1431 101.983 66.9406 101.069 66.923C99.2581 66.835 98.1065 66.615 97.6141 66.2629C97.2977 66.0341 97.0339 65.6028 96.8229 64.9691C97.4735 65.6028 98.0977 65.9725 98.6955 66.0781C99.5043 66.2541 100.55 66.0341 101.834 65.418L103.153 64.9691L104.709 64.7578L106.555 65.1275C107.469 65.3035 108.225 65.2947 108.823 65.1011C109.474 64.8899 109.983 64.5906 110.353 64.2033L111.249 62.9095C111.935 61.8533 112.893 60.6475 114.124 59.292C116.357 56.8803 117.816 55.4017 118.502 54.856C118.783 54.6271 119.364 54.3631 120.243 54.0638L121.878 53.4301C122.159 53.2541 122.37 52.9372 122.511 52.4795C122.599 52.1803 122.696 51.6698 122.801 50.948C122.871 50.4375 122.863 49.9799 122.775 49.575C122.704 49.2405 122.616 49.0733 122.511 49.0733C122.353 49.1085 122.265 49.3549 122.247 49.8126C122.054 51.3969 121.86 52.3563 121.667 52.6908C121.544 52.902 121.104 53.122 120.348 53.3509C119.452 53.6325 118.827 53.9054 118.476 54.1694L115.707 56.5195C114.37 57.7693 113.368 58.8079 112.7 59.6353C111.75 60.8323 110.863 62.1085 110.036 63.464L109.06 64.1241C108.55 64.3354 107.979 64.441 107.346 64.441L106.001 64.2561L104.603 64.0713L103.047 64.2561L101.544 64.6522C100.208 65.2331 99.4164 65.5236 99.1702 65.5236C98.6603 65.5236 97.9922 65.0923 97.1658 64.2297C96.1636 63.1911 95.1526 61.7477 94.1328 59.8993C93.5526 58.8431 93.0691 57.8133 92.6823 56.8099C92.2427 55.6833 92.0229 54.8384 92.0229 54.2751C92.0229 53.8174 92.2075 53.4741 92.5768 53.2453L93.7636 52.3739C94.1504 51.9162 94.5987 51.0801 95.1086 49.8654C95.5658 48.8092 95.8999 47.8851 96.1108 47.0929C96.4098 46.0015 96.779 44.8573 97.2185 43.6603C97.5702 44.6989 97.9746 45.491 98.4317 46.0367L99.1966 46.7232C99.4955 46.9345 99.6449 47.1545 99.6449 47.3834L99.7768 47.6474L100.014 47.5946C100.172 47.2777 100.252 46.8905 100.252 46.4328L100.014 44.7165C99.8383 43.7483 99.6713 43.0882 99.5131 42.7361L97.6933 38.036C97.2361 36.6629 97.0076 35.4835 97.0076 34.4977C97.0076 33.8288 97.1394 33.2127 97.4032 32.6494C97.6142 32.2269 97.9658 31.7076 98.4581 31.0915C98.9328 30.5106 99.4867 29.6656 100.12 28.5566C100.841 27.3068 101.43 26.1098 101.887 24.9655C102.871 22.4483 103.715 19.1124 104.419 14.9581C105.052 11.4022 105.474 9.28979 105.685 8.62086ZM105.052 7.37983L103.627 14.0603L102.203 20.5823C101.693 22.4307 100.884 24.4286 99.7768 26.5762L97.8515 30.1145C97.0603 31.5756 96.6032 32.6054 96.4801 33.2039C96.3394 33.8728 96.2867 34.4625 96.3218 34.973L96.6383 36.3725L97.1394 38.168L96.9548 39.4355C96.8317 40.5093 96.8054 41.6271 96.8757 42.7889L94.8713 48.466L93.9218 50.6576C93.535 51.3793 93.2185 51.8458 92.9724 52.057L91.891 52.8228C91.3987 53.2101 91.1526 53.6677 91.1526 54.1958C91.1526 55.2696 91.6273 56.8011 92.5768 58.7903C93.5086 60.7795 94.5724 62.4782 95.768 63.8865C95.8383 64.8018 96.2427 65.7084 96.9812 66.6062C97.368 67.0463 98.124 67.3631 99.2493 67.5568L102.177 67.9C102.687 67.9704 103.416 68.2345 104.366 68.6922C105.175 69.097 105.931 69.2995 106.634 69.2995C107.513 69.2995 108.577 69.0002 109.825 68.4017C110.863 67.8912 111.636 67.3983 112.146 66.923L113.887 64.9163L116.471 61.7213L122.089 55.4633C122.581 54.9528 123.135 54.6359 123.751 54.5127L124.674 54.3279L126.098 52.6908L127.522 50.8424L128.63 48.8092C129.069 47.9115 129.289 47.2601 129.289 46.8553C129.289 46.292 128.964 44.6901 128.313 42.0496C127.733 39.5675 127.443 37.5695 127.443 36.0556C127.443 35.0346 127.865 33.4327 128.709 31.2499C129.447 29.3136 130.265 27.5532 131.162 25.9689C131.83 24.7895 133.034 23.2404 134.775 21.3217L137.861 17.9418C138.546 17.0793 138.845 16.0671 138.757 14.9052C138.687 13.849 138.344 13.0745 137.729 12.5816C137.166 12.1063 136.313 11.8511 135.17 11.8159C133.834 11.7631 132.744 12.1415 131.9 12.9513L127.153 17.6778L122.722 22.0874C120.964 23.6541 119.724 24.5959 119.003 24.9127C118.546 25.124 117.781 25.212 116.709 25.1768C115.601 25.124 114.731 24.9567 114.098 24.6751C113.183 24.2878 112.507 23.8653 112.067 23.4076C111.381 22.6683 111.038 21.6825 111.038 20.4503L111.012 16.8592L111.118 13.717L111.54 8.11917C111.575 7.30942 111.346 6.49966 110.854 5.68991C110.309 4.79214 109.614 4.28165 108.77 4.15842C107.926 4.0528 107.135 4.34326 106.397 5.02979C105.711 5.68111 105.263 6.46446 105.052 7.37983Z" fill="#0D131A"/>
</g>
<defs>
<filter id="filter0_d_15_10" x="0" y="0" width="199" height="195" filterUnits="userSpaceOnUse" color-interpolation-filters="sRGB">
<feFlood flood-opacity="0" result="BackgroundImageFix"/>
<feColorMatrix in="SourceAlpha" type="matrix" values="0 0 0 0 0 0 0 0 0 0 0 0 0 0 0 0 0 0 127 0" result="hardAlpha"/>
<feOffset/>
<feGaussianBlur stdDeviation="2"/>
<feComposite in2="hardAlpha" operator="out"/>
<feColorMatrix type="matrix" values="0 0 0 0 0 0 0 0 0 0 0 0 0 0 0 0 0 0 0.25 0"/>
<feBlend mode="normal" in2="BackgroundImageFix" result="effect1_dropShadow_15_10"/>
<feBlend mode="normal" in="SourceGraphic" in2="effect1_dropShadow_15_10" result="shape"/>
</filter>
<filter id="filter1_d_15_10" x="118.195" y="23.9653" width="98.8398" height="112.81" filterUnits="userSpaceOnUse" color-interpolation-filters="sRGB">
<feFlood flood-opacity="0" result="BackgroundImageFix"/>
<feColorMatrix in="SourceAlpha" type="matrix" values="0 0 0 0 0 0 0 0 0 0 0 0 0 0 0 0 0 0 127 0" result="hardAlpha"/>
<feOffset dx="10" dy="14"/>
<feGaussianBlur stdDeviation="7"/>
<feComposite in2="hardAlpha" operator="out"/>
<feColorMatrix type="matrix" values="0 0 0 0 0 0 0 0 0 0 0 0 0 0 0 0 0 0 0.26 0"/>
<feBlend mode="normal" in2="BackgroundImageFix" result="effect1_dropShadow_15_10"/>
<feBlend mode="normal" in="SourceGraphic" in2="effect1_dropShadow_15_10" result="shape"/>
</filter>
<clipPath id="clip0_15_10">
<rect width="191" height="187" fill="white" transform="matrix(-1 0 0 1 195 4)"/>
</clipPath>
</defs>
</svg>
